<?xml version="1.0" encoding="UTF-8"?>
<svg xmlns="http://www.w3.org/2000/svg" viewBox="0 0 283.46 283.46">
  <defs>
    <style>
      .cls-1 {
        fill: #087776;
      }

      .cls-2 {
        fill: #7a7a79;
      }

      .cls-3 {
        fill: #fff;
      }

      .cls-4 {
        fill: #96e5ea;
      }

      .cls-5 {
        fill: #040504;
      }
    </style>
  </defs>
  <g id="Negro">
    <g>
      <path class="cls-5" d="M146.61,90.14c-11.37,3.32-20.52,14.37-19.72,26.48l-.52.96.71.47c1.62,21.31,24.37,23.95,37.45,9.98l1.01-.21.09-1.02c12.58-15.07,3.7-43.31-19.03-36.67ZM130.48,105.27c3.1-6.4,7.88-10.04,14.28-12.69.35-.15.77-.86,1.51-.6-.11.59-.87.63-1.21.9-9.42,7.42-14.45,37.62,1.5,41.44l3.62.75c-17.54,4.2-26.57-15.63-19.7-29.79Z"/>
      <path class="cls-5" d="M166.91,57.01l.15-.3c-.06.13-.11.23-.16.3,0,0,0,0,.01,0Z"/>
      <path class="cls-5" d="M264.94,119.91c-.52-2.27-4.46-3.05-4.45-3.38,3.66-2.6,7.49-18.42-.25-16.52-.9.22-2.23,1.28-2.92,1.28-.62,0-1.73-.86-2.5-1.1-1.25-.38-2.4-.23-3.54-.68-.23-1.82-1.36-3.4-1.82-5.11-.41-1.52-.1-3.47-1.2-4.83-1.4-1.73-3.03-.8-3.45-1.05-.28-.17-.55-1.02-1.05-1.38-.59-.43-1.3-.37-1.77-.64-.58-.34-2.54-6.78-3.07-8.08-.84-2.09-3.67-7.06-4-8.66-.3-1.45-.07-2.91-.58-4.54-.35-1.11-1.48-2.33-1.59-2.93-.18-.96.1-2.25-.01-3.3-.51-4.88-3.6-5.62-6.92-2.27,1.84-7.17-3.27-7.73-7.23-3.01l-.62-11.58c-.21-1.37-1.14-2.25-2.55-2.31-2.11-.08-3.47,3.07-4.57,4.47-.15.19-.23.84-.69.38-.24-.24-1.41-5.54-1.73-6.56-3.74-11.74-8.04-20.83-16.5-29.91-3.34-3.58-10.59-11.19-15.68-6.93-3.88,3.25-.8,10.79-1.06,15.22-.33,5.77-3.37,12.4-3.87,18.42-.11,1.38.28,8.55-.04,8.85-.06.05-1.15-.04-1.59.07-2.43.61-2.87,3.22-3.23,5.36.05,1.4-.07,2.82,0,4.22.01.2-.01.4,0,.6l.3.9c.03.19-.04.43,0,.6l.3.9c.03.1-.03.22,0,.3.03.08.44.14.3.6h-1.2c-.01-.5,0-1,0-1.5,0-.2,0-.4,0-.6-.47-.21-.26-.82-.3-1.21,0-.1,0-.2,0-.3-.43-.17-.24-.6-.3-.9-.55-2.57-2.01-6.99-5.42-5.42-1.16-5.2-2.62-10.56-4.52-15.52-1.32-3.46-3.16-6.56-4.58-9.89-2.68-6.27-4.34-14.07-10.34-18.29-4.34-3.05-6.84,2.69-8.34,5.83-6.36,13.28-14.62,38.22-14.73,52.78,0,.94.58,5.64.32,5.89-.31.29-2.25-.77-3.38,1.9-.97,2.32-.39,4.84.36,7.14-.76.04-1.95.39-2.49.89-.5.46-.75,1.95-1.26,2.03-2.7.44-11.37-8.23-12.2-2.15-.37,2.72,1.28,6.06,3,8.11.58.68,3.41,2.88,3.31,3.31-.06.24-.91.59-1.2.91-.35.4-1.42,2.19-1.68,2.25-.42.09-1.84-1.58-3.76.14-.88.79-1.83,3.55-2.17,4.76-1.64,5.73-1.64,11.88.68,17.4-3.51-.61-10.44-1.08-9.63,4.35.44,2.93,7.06,8.62,8.72,11.48.13.68-.3.42-.75.45-1.96.14-4.9-.36-5.68,2.16-1.34,4.34,4.75,9.75,8.24,11.55-2.23.98-4.14,5.49-1.48,6.9,1.63.87,3.31-.04,4.95-.12,1.75-.09,3.52.06,5.27,0-.14,1.19.14,2.19.46,3.3.83,2.86,4.28,7.83,7.67,5.74.2-.12.44-.9.9-.9.2.6-.44.86-.6,1.21-2.59,5.62-5.49,10.37-1.75,16.37.52.83,2.59,2.83,2.67,3.38.16,1.13-1.95,6.75-2.28,8.56-.7,3.9-.48,6.41,1.37,9.95-5.4,2.31-16.08,5.36-16.28,12.53-.06,2.05,1.11,4.37,1.2,6.04.12,2.28-1.68-.32-2.15-1.18-.98-1.76-1.02-4.45-3.68-4.12-2.59.33-2.74,4.96-2.59,6.92-.29.3-5.75-1.99-8.12-.44-.64.42-1.03,1.65-1.53,1.53-1.89-.44-5.84-4.08-6.93-5.75-13.52-20.76,24.69-58.09.17-79.12-7.92-6.79-15.9-9.75-16.74-22.13-.14-2.1,1.55-7.92-2.41-6.66-2.44.77-5.06,7.91-5.11,10.42-3.56-2.95-5.59-6.31-10.44-7.19-3.77-.68-17.87-.65-20.88,1.33-1.81,1.19-1.41,3.09-.67,4.86,1.55,3.7,10.82,18.61,13.63,21.02,1.51,1.3,3.82,1.8,5.71,2.28-1.11,2-3.48,6.33-1.2,8.28,2.58,2.2,5.26-1.22,7.25-2.38,2.86-1.67,8.09-3.02,11.11-1.21.81.49,1.03,1.65,1.9,2.02.74.31,1.58.06,2.21.5.4.28,1.87,2.95,2.15,3.57,4.35,9.5,1.53,19.07-2.48,28.08-1.4,3.15-.97,1.4-3.16,1.95-1.81.45-3.09,2.94-4.09,4.36-.4.57-1.18,1.02-1.46,1.55-.58,1.11-.96,5.06-1.21,5.42-.36.53-2.93.15-3.42,2.3-.44,1.93.71,5.08.84,7.17.26,4.28-1.22,8.43-1.5,12.66-.97,14.89,6.49,30.56,19.88,37.52.42.46-1.54,1.35-1.97,1.79-2.37,2.44-.91,4.66,1.81,5.74,6.26,2.48,14.98,2.95,21.55,1.8-1.48,4.1-.33,9.1,5.03,6.68,4.8-2.17,7.99-7.73,12.61-10.24,4.24,5.72,10.74,7.85,17.51,8.95.68.11,1.48-.1,2.01.03.14.03,1.02,1.44,2.15,1.83.94.32,2.47.15,2.82.35.15.08.85,1.65,1.14,2.03,4.37,5.86,12.35,9.04,19.57,9.39.82.04,1.55-.34,2.36-.31,2.6.09,4.73,1.34,7.81.81,1.52-.26,3-1.7,4.06-1.97,3.08-.77,4.55.19,7.62-2.33.63-.52,1.85-2.25,2.11-2.41.66-.39,2.74-.61,3.92-1.2.96-.48,2.95-2.47,3.21-2.54.64-.17,2.85,1.86,3.61,2.32,2.83,1.73,7.75,4.35,11.06,4.25,1.24-.04,2.29-1,3.12-1.13,1.7-.27,2.81.46,5.19-.5,1.6-.65,1.89-1.64,3.04-2.38,1.42-.91,3.51-1.28,4.71-2.86.49-.13,3.18,1.79,4.1,2.14,6.47,2.45,14.84-.88,20.38-4.45,5.49-3.53,4.88-9.99,2.29-15.21-.64-1.29-4.14-5.7-4.04-6.39.11-.82,1.95-3.75,2.44-4.83.25-.56.13-1.27.39-1.72.25-.43,4.09-3.78,4.86-4.63,5.7-6.31,10.44-12.21,7.34-21.15-1.59-4.59-4.19-9.27-5.96-13.93-1.23-3.24-2.35-6.54-3.28-9.88,2.95-2.99,5.78-6.27,7.47-10.18,2.4-5.55,1.62-9.31.8-15.07-.2-1.39-1.21-4.79-1.14-5.76.09-1.37,1.84-3.21,1.81-5.73-.03-2.44-1.43-4.61-2.12-6.79,2.87-.47,3.27-2.77,2.11-5.13,4.26.89,11.5,4.25,13.7-1.51,2-5.24-2.28-9.77-5.57-13.25,3.14-.25,9.03-1.92,8.07-6.12ZM102.22,221.35c1.46-3.17,3.14-2.96,6.38-3.11l-1.81,5.42c-1.87-.89-6.07.94-4.57-2.32ZM96.85,258.92c-2.31,2.01-4.36,4.83-7.53,5.72-.25-3.07,2.08-5.74,3.79-8.11.52-.72,1.5-1.09,1.33-2.13-8.97,5.02-19.06,4.11-28.62,1.5-.53-.57,2.33-1.81,2.72-1.95,1.92-.69,4.01-.74,5.97-1.27.31-.08.75.06.66-.39-12.31-3.73-21.39-12.65-25.01-25.02-2.89-9.86-.48-13.86.01-23.04.15-2.8-.48-5.52-.61-8.3.73.43,1.01,1.66,1.43,2.32.19.3-.03.54.67.39l1.68-10.23,2.84-3.93c.16,1.82-.34,3.58-.51,5.36-.03.33-.36,1.02.21.96,7.9-11.76,14.81-26.4,9.49-40.67-.7-1.88-2.94-6.19-4.95-6.8-.54-.16-1.63-.05-1.78-.18-.08-.07-.04-.67-.52-1.13-1.99-1.9-6.91-1.98-9.47-1.54-3.63.63-6.19,2.35-9.04,4.52-.04-1.65,1.41-3.76,2.8-4.58.78-.46,2.95-.74,2.61-1.87-.47-1.54-6.91-2.13-8.41-2.74-3.23-1.31-9.37-11.72-11.4-15.12-.67-1.12-3.44-5.5-3.66-6.29-.2-.69.33-.34.59-.44,1-.37,1.35-.31,2.41-.3.82-.6,2.25-.23,3.31-.3l1.21-.3c.3-.02.61.02.9,0,3.43-.23,9.39-.52,12.52.89.71.32,5.02,4.38,5.56,5.14.2.29.44.6.6.9,1.88,1.07,3.3,3.77,4.82,4.98.3.24.4.57.91.45.32-.36-.99-7.31,0-8.44.04-.79.15-1.42.39-2.17.1-.31.07-.91.51-.84.37,1.5.49,3.03.91,4.52,1.13,4,3.03,7.8,5.87,10.85,1.09,1.17,2.6,1.91,3.47,3.31.91.3,2.16,1.51,3.01,2.11,1.2.85,2.22,1.82,3.31,2.71.8.65,1.47.92,2.41,1.81.1.1.2.2.3.3,4.85,4.8,7.09,10.92,5.73,17.78.03.16,0,.41,0,.6,0,1.28-.57,2.97-.9,4.22-.04.35-.14.6-.3.9.12,1.19-.62,2.28-.9,3.31-.33,1.2-.55,2.41-.9,3.62-1.21,4.16-2.64,8.23-3.92,12.36-.52,1.68-.77,3.51-1.51,5.12-.1,1.17-.65,2.2-.9,3.31-.19.82-.38,1.35-.6,2.11-.23.78.05,1.55-.6,2.41-.26,3.73-.81,7.4-.6,11.15,0,.1,0,.2,0,.3,0,.06.24.69.3,1.21.01.1-.01.2,0,.3.1.8.24,1.6.3,2.41.31.45.91,2.26.9,2.71,1.87,4.41,4.88,7.01,8.74,9.64,1.44.46,2.65,1.38,3.92,1.81,1.92.65,4.34.72,6.33,1.2.43-.42-2.22-2.07-2.57-2.4-.53-.51-.97-1.03-1.35-1.67,3.74-.88,6.71,2.18,9.94,3.16-.07-2.39-1.28-4.48-.9-6.93,1.48,2.3,3.84,3.75,5.25,6.02-3.07,9.95-.62,20.13,3.51,29.34-2.53,1.38-4.51,3.44-6.65,5.31ZM173.09,270.37c.01-1.4-.3-3.31-1.07-4.51-.33-.52-2.81-3.13-3.43-2.1-.7,1.18.98,2.14,1.48,2.84,2.91,4.12-.87,8.72-5.42,8.28.77-1.97.99-4.44.32-6.49-.34-1.03-.83-2.44-2.14-1.81-.73.51.54,2.93.62,3.94.37,4.57-2.76,6.81-7.07,6.47-1.42-.11-3.18-.83-4.56-.87-3.77-.09-4.97.24-8.86-.94-4.57-1.38-7.78-3.07-10.68-6.95-1.5-2.01-1.08-3.53-4.69-3.3-.09-.44,2.84-1.21,2.11-1.8-10.89-.03-19.64-1.31-24.87-11.75-3.96-7.92-5.73-17.57-3.12-26.19.28-.12.58,0,.87-.03.63-.05,1.28-.02,1.92.04,10.05,2.12,19.29,6.98,29.12,9.91,1.09-.09,6.17,1.63,7.53,2.11,1.9.67,3.66,1.54,5.42,2.41.41.2.8.39,1.21.6.72.38,4.58,2.42,4.79,2.74.05.08-.41.9-.14,1.79.73,2.4,6.02,2.07,8.22,3.24,2.38,1.26,4.24,4.36,6.62,5.74,1.65.95,3.43,1.11,5.12,1.81,7.2,2.98,9.97,12.91.7,14.82ZM137.33,233.57c-1.33.41-8.44-2.83-10.34-2.99-.29-.39,3.55-7.91,4.41-8.08,3.21.9,5.89,3.02,8.52,4.96.14.49-2.21,5.98-2.58,6.1ZM141.45,228.48c4.36,2.11,7.21,5.54,10.56,8.87.71.82-.06,1.46-.35,2.25l-12.2-5.39c-.37-.51,1.82-4.81,1.99-5.74ZM125.47,229.99l-8.74-3.02c-.37-.42,2.99-6.04,3.03-7.22,1.17.78,9.57,1.28,9.62,2.25-1.48,2.53-3.29,5.07-3.91,7.99ZM114.94,225.94l-6.22-1.97c-.34-.43,1.49-5.15,2.19-5.39.97-.33,5.03.31,6.27.56.31.06.64.11.75.47.21.7-2.56,5.29-2.99,6.32ZM154.7,239.33c0,.48-1.42,2.86-1.56,2.95-2.05,1.34.63-3.01,1.56-2.95ZM207.74,248.07c-.79-.23-3.69-.38-4.09-.89-.58-.76.68-1.43,1.02-2.03.99-1.71,1.56-3.84,1.56-5.83l3.32.3c-.72,2.8-1.67,5.51-1.81,8.44ZM211.39,239.96l8.41.27-2.09,7.7c-2.71.35-5.42.54-8.16.43.1-2.93,1.04-5.63,1.84-8.41ZM204.73,238.27c0,.48-.87,3.68-1.12,4.3-1.05,2.63-2.49,1.77-4.91,2.48-.11-2.43-.66-4.78-1.47-7.05l7.5-4.1v4.37ZM197.16,245.92l-10.51,3.65-2.29-7.85,11.32-2.99c.12,1.2,1.96,6.45,1.48,7.18ZM185.01,250.19l-10.98,2.67-2.44-8.41c3.84-.04,7.38-1.57,11.14-2.1l2.29,7.84ZM171.88,253.19c-3.92-.25-5.44-3.38-8.3-5.42-1.1-1.71,5.33-3.62,5.9-3.2.36.27,2.69,8.27,2.39,8.62ZM211.05,262.98c-.28,2.69-2.21,5.09-4.82,5.88-.08-1.13.11-2.35,0-3.46-.13-1.26-1.05-4.65-2.56-4.7-1.47-.05.15,2.92.31,3.63.61,2.64.96,6.77-2.32,7.64-3.41.9-2.19-.22-2.35-2.05-.13-1.5-1.88-5.21-3.73-4.65-1.4.42,1.19,2.8,1.47,3.88,1.81,6.99-7.69,2.35-10.38.74-1.16-.7-5.3-3.78-5.68-4.87-.87-2.54-.13-6.16-2.78-8.37l-2.41-1.95c8.88-1.55,17.03-5.58,25.61-8.14-.07,2.6,3.1,3.74,4.83,5.27,3.6,3.19,5.33,6.15,4.81,11.15ZM233.96,264.34v-4.37c0-.12-.71-1.89-.85-2.16-.29-.58-1.91-3.01-2.62-1.91-.53.82,1.44,3.32,1.64,4.7.68,4.9-2.58,7.09-6.9,7.96,1.04-1.93.65-4.12-.07-6.11-.29-.81-2.69-5.31-3.85-4.13-.66.66,2,4.27,2.32,5.36,2.55,8.57-7.74,5.79-11.34,2.28,2.27-6.28-.3-11.72-5.15-15.77,7.88.52,15.95-.23,23.51-2.58,4.03,3.83,9.44,12.58,3.31,16.74ZM224.55,247.1c-.61.45-3.78.36-4.76.66.17-2.6.98-5.07,1.85-7.49l5.99-.34c-.92.82-2.76,6.94-3.08,7.17ZM229.47,239.67l3.88-.33c-1.5,3.01-2.51,7.34-6.63,7.23-.41-.4,2.72-5.79,2.75-6.89ZM245.42,173.5c-.43,4.98-4.48,10.1-8,13.39-2.08-1.01-4.13-11.51-5.13-11.75-2,1.11.37,4.27,0,6.02-4.19-2.94-8.42-5.44-13.41-6.78-.71-.19-1.71-.64-2.41-.31,3.7,2.58,7.9,4.26,11.73,6.66,1.31.82,4.66,2.83,5.4,3.94,3.01,4.53,4.49,11.04,6.45,16.15,1.43,3.74,6.92,14.48,6.86,17.54-.11,5.8-6.37,12.36-10.25,16.3-2.38,2.42-3.06,2.65-6.52,3.12-7.95,1.09-15.69.27-23.62-.27-.1-1.41.14-2.98,0-4.37-.02-.24-.48-.8-.55-1.28-.22-1.57,2.29-4.46,3.02-6.2,4.35-10.4-2.77-14.54-8.14-22.11-1.68-2.37-3.77-5.45-4.8-8.15-.38-1-1.75-6.87-2.34-7.01-1.08-.26-.73,2.21-.66,2.78,1.08,10.02,9.46,16.03,14.15,23.82,1.61,2.67,1.41,5.04.62,7.99-.47,1.75-3.05,7.04-4.05,8.61-1.58,2.5-10.25,5.48-13.22,6.37-4.26,1.28-9.94,2.99-14.22,3.86-3.68.75-10.62.43-13.49,2.78-.54.44-.86,1.44-1.43,1.61-.83.24-4.61-1.72-5.96-1.47l-.74-.48,2.9-6.67c2.57-1.58-1.28-2.74-2.44-4.32-2.58-3.49-1.93-11.04-2.62-15.46-.52-3.31-1.7-6.48-2.28-9.77-.5-2.83-.37-5.75-1.3-8.5-.55.17-.8.85-.88,1.37-.9,5.62,1.82,12.24,2.66,17.8.64,4.24.12,10.9,2.09,14.49.44.8,2.11,2.23,2.15,2.39.14.44-.4,1.24-.75,1.31-.41.09-4.94-5.31-5.72-6.02-3-2.75-11.66-8.36-15.41-9.9-4.9-2.02-15.39-3.99-20.79-4.53-2.99-.3-5.76-.31-8.68.53-1.12-1.95-1.68-5.56-.42-7.6,1.87-3.02,13.4-7.06,17.13-9.08,4.84-2.62,9.71-7.85,15.53-7.7,14.18.36,27.02,1.8,40.62-3.95,1.74-.73,8.29-4.6,8.93-6.14.23-.55-.31-.52-.69-.38-1.97.71-4.97,2.92-7.24,3.91-14.36,6.23-25.96,5.14-41.02,4.76-6.82-.17-9.71,3.31-14.95,6.47-2.05,1.23-2.42,1.54-3.75-.72-2.83-4.79,1.21-10.68,1.68-15.67,1.52.12,2.88.98,4.39,1.16,1.18.14,3.06.47,2.48-.98-.3-.75-3.79-1.38-4.85-1.78-5.51-2.08-7.76-6.1-5.58-11.75.51-1.33,4.24-8.98,5.06-9.41,1.05-.55,3.82-.58,5.12-1.06-.8,1.38-2.83,2.03-2.41,3.91.83.85,6.12-4.04,7.14-4.76,18.13-12.91,52.74-11.4,69.56,3.25,1.19,1.03,5.66,6.35,6.89,6.02,1.35-.36-.89-2.9-1.34-3.44-4.25-5.12-11.32-9.52-17.47-11.92,3.89-7.06,11.73-9.22,19.18-10.5,8.94-1.54,27.03-2.99,33.55,4.63,2.06,2.41,4.42,6.68,3.9,9.92-.24,1.52-1.79,2.39-1.82,3.93-.02,1.11.65,2.06.85,3.1.67,3.49,1.6,8.81,1.3,12.28ZM249.93,122.71c-.37.35.93,1.9,1.21,2.25,2.39,2.94,8.21,7.52,8.41,11.5.09,1.66-.39,2.81-2.21,2.79-3.23-.03-8.53-2.14-12.13-2.64-1.91-.27-3.95-.61-5.83-.04,1.81,2.49,5.89,3.12,6.33,6.62-2.55.61-3.22-1.1-4.9-2.18-7.56-4.85-16.69-4.97-25.38-4.45-1.03.06-2.39.46-3.45.48-.28,0-.6-.11-.62-.33-.02-.3,1.72-3.47,1.53-4.34,8.57.63,17.76-3.36,20.99-11.7,1.86-4.79,2.09-10.47.98-15.45-2.36-10.53-10.47-18.05-21.03-20.11-17.46-3.4-28.18,18.09-22.12,32.37,3.51,8.27,9.63,7.32,17,8.61,1.07.19,1.03.31,1.74.83.33.24.88.53,1.05.91.93,2.06-1.77,7.37-2.31,9.59-8.46,1.11-18.32,3.55-22.43,11.83-1.73-.49-3.42-1.06-5.18-1.44-14.71-3.18-33.26-3.59-46.97,3.47-1.22.63-5.16,3.79-5.73,3.92-.3.07-3.69-.36-3.86-.55-2.38-2.8,3.35-10.69,5.58-12.66-.18-.41-.12-.6-.6-1.51-2.01,1.26-3.79,2.9-6.03,3.76-2.13.82-4.07.85-6.32,1.06-.13-.81.22-1.34.55-2.01.72-1.47,5.49-7.66,5.48-8.4-.03-1.7-3.11.8-4.14,1-3.45.66-5.05-1.48-6.1-4.45,2.11-.18,4.31.91,6.33.3l-1.21-3.01c1.63-.4,1.82,1.65,3.31,1.5.41-1.75-1.44-3.61-3.11-3.53-.88.04-1.31.79-1.4.82-.71.37-.53,2.03-.6,2.11-.6.64-6.42-2.5-4.98,3.02.84,3.22,3.93,5.87,7.39,5.42-1.02,1.62-4.69,6.9-3.57,8.69.28.45,3.91.41,4.64.36,1.49-.11,2.88-.73,4.36-.77-1.7,2.96-2.75,6.17-1.5,9.49l-2.11.3c-.33-.32,1.3-1.7.1-2.07-1.47-.46-4.28.73-5.5,1.64-1.66,1.25-1.71,3.01-3.63.87-.96-1.06-2.45-4.28-1.67-5.57.38-.63,2.68-.8,2.56-2.1-4.57-.82-9.25-.78-13.86-.31,1.56-2.61,4.2-3.01,6.62-4.37-5.04-1.97-11.25-3.8-12.65-9.79,3.19-.27,8.01,1.56,9.94-1.81-.39-.02-.86.02-1.22-.14-.8-.34-4.43-5.97-5.42-7.24-1.4-1.79-3.32-3.52-4.63-5.31-.39-.53-.88-1.03-.78-1.78,3.14-.82,6.13-.07,8.84,1.56.85.51,4.71,4.31,5.3,2.46.38-1.18-2.38-4.43-3.04-5.63-3.57-6.48-4.12-11.65-2.05-18.88l2.86,4.82c3.56,2.73,2.31-.87,2.25-2.85-.08-2.86-.12-6.18,2.75-7.82,2.55-1.46,2.61.6,3,2.37.33,1.45,2.18.9,2.11-.88-.2-5.54-9.68-7.64-10.26-13.42,1.72.8,3.26,1.94,5.04,2.64,2.44.96,5.69,1,7.53,1.81,1.11.49,2.1,1.65,3.63,2.09,1.23.36,4.42.41,4.99-.89.97-2.22-2.19-1.03-3.58-1.12-1.85-.12-3.97-1.4-4.35-3.33,1.12.42,4.14,3,4.76.99.58-1.89-.89-2.61-1.59-4.01-.71-1.42-1.07-3.25-1.35-4.82.57.28.65,1.21,1.07,1.79.49.67,2.36,2.39,2.8,1.03.31-5.32-.52-10.62-.27-15.94.27-5.59,3.15-21.34,5.74-26.05,1.61-5.73,3.64-11.37,5.88-16.87.67-1.64,3.95-9.86,4.97-10.4.34-.18.79-.27,1.14-.07,5.21,4.4,6.56,10.68,8.81,16.8,3.26,4.08,6.61,15.15,8.05,20.43.49,1.81,2.62,11.9,3.24,12.43.31.27.34.43.78.15.69-.45,1.44-3.72,1.5-4.68.07-.09.37.15.45.3.81,1.45,1.16,6.55,1.07,8.3-.08,1.57-1.41,6.38-1.2,7.18.07.26.25.44.59.36.69-.17,1.8-.91,2.77-1.16,1.92-.5,3.67-.63,5.66-.52.76.74-3.67,4.98-4.61,5.48-.39.21-4.46,1.44-1.27,1.77,2.64.28,4.28-2.12,5.08-2.07,1.29.08,4.2,3.08,5.13,2.91,2.01-.37-.36-2.76-1.31-3.12,1.86-.13,4.24.74,5.93,1.61,1.19.6,5.16,3.89,5.67,3.98.63.11.52-.28.44-.74-.53-2.92-3.07-6.19-2.39-9.51l1.8,1.96c1.92,1.29,4.07,3.88,6.48,4.06.43.03,1.2.26,1.05-.45-1.5-1.28-3.34-2.33-4.82-3.62-1.58-1.37-2.96-3.41-4.36-4.68-2.34-2.11-2.37,2.66-2.26,4.07.1,1.25.59,2.47.84,3.69.31,1.56-1,.02-1.54-.28-2.69-1.48-5.88-2.34-8.95-2.35.69-1.57,2.19-3.44,0-4.36-2.29-.97-3.64.38-4.2-3.34-.05-.33-.22-.9.42-.72,1,.28,4.9,3.59,5.28,3.31.48-1.65-1.01-3.01-1.64-4.53-1.29-3.08-2.36-8.41-1.38-11.6.42-1.35.76.31,1.05.78.53.87,2.92,5.15,3.63,5.11,1.67-2.74.34-6.26.15-9.19-.58-8.95.78-12.77,2.41-20.94.42-2.13,1.14-4.96,1.22-7.07.2-5.34-4.44-18.74,6.16-10.71,3.38,2.56,7.54,7.68,10.1,11.14,5.53,7.5,8.85,16.92,11.37,25.85.52,1.85,3.02,14.23,4.46,14.22.96-1.29.55-3.42.79-4.93.44-2.74,1.31-5.6,3.13-7.72l1.06,16.57,7.23-6.63c-.72,2.58-1.37,6.6-2.75,8.85-1.15,1.88-3.54,2.49-4.78,4.26.38.55.7.48,1.28.4,3.83-.51,9.01-7.67,12.58-9.58,1.02,1.04-.4,7.87-1.05,9.34-.45,1.02-1.39,1.67-1.66,2.71,1.67.07,2.57-1.63,3.32-2.85.24-.38.78-2.5,1.35-1.67.97,1.41.07,4.27.51,5.82.11.39,1.67,2.42,2.1,3.33,1.44,3.02,5.25,12.23,5.61,15.19.08.66-1.29,4.72.51,4.3.59-.14,1-2.43,1.66-2.71.52,2.58-.67,4.85-1.2,7.23-.11.51-.7,3.42.3,2.71.03-.02-.04-.34.23-.59,2.09-1.93,2.39-4.41,3.75-6.73.13-.23,1.06-1.87,1.45-1.41.65,3.81-.34,7.62-1.81,11.15,3.59,0,7.96-2.21,11.14.15-.58.61-6.42,6.12-5.72,6.78.69.12,1.09-.32,1.6-.65,1.18-.76,9.16-7.89,10.15-6.88.15,3.67-.94,8.89-3.77,11.45-1.03.93-5.28,2.51-5.29,3.47,0,1.22,2.57.65,3.47.76.88.11,5.9.93,5.87,1.95-3.29,2.1-7.96,2.04-11.74,1.66ZM213.47,128.74c2.42.62,4.71,1.54,7.23.91l-3.5.86c-1.77-.06-4.21.86-3.73-1.77ZM198.44,111.07c.74,5.39,3.13,10.83,8.7,12.55,0,.53-1.32.33-1.67.31-4.71-.31-9.53-1.89-11.65-6.43-4.81-10.3.64-27.84,12.71-30.34l-2.41,1.96c-5.25,5.92-6.75,14.25-5.69,21.96Z"/>
      <path class="cls-5" d="M215.63,215.43c-2.32,5.13-6.01,10.13-6.68,15.77,3.25-4.01,5.82-9.16,7.98-13.86,3.75-8.15,5.91-14.13,4.97-23.35-.17-1.66-.46-3.36-.9-4.97-.7.34-.83,1.86-.9,2.57-.3,3.38.26,7.15,0,10.55-.31,4.22-2.73,9.43-4.48,13.3Z"/>
      <path class="cls-5" d="M223.87,156.46c-1,0-5.11,2.05-5.89,2.85-4.33,4.49,6.59,6.3,9.2,6.49.47.03.52.04.45-.45-.87-1.48-8.72-2.82-8.43-4.2.38-1.74,7.16-3.21,8.65-4.02.36-.19.5.01.38-.67h-4.37Z"/>
      <path class="cls-5" d="M152.45,77.51c.44.03,1.8,5.39,3.02,3.62.83-1.21-1.32-5.97-3.25-5.68-1.25.19-5.98,4.7-5.04,5.67.71.73,4.39-3.28,5.27-3.61Z"/>
      <path class="cls-5" d="M206.76,73.03c-1.32.24-5.81,5.24-3.35,5.66.8.14,2.67-3.38,3.88-3.59.65.05,1.49,4.28,3,3.91,1.23-.36-.44-3.41-.81-4.01-.63-1.02-1.29-2.24-2.73-1.97Z"/>
      <path class="cls-5" d="M180.21,137.27c-.55.03-1.8.59-1.68,1.23.13.74,2.26,1.2,2.72,1.82.42.58.39,2.56,1.79,1.84,1.79-.92.13-5.08-2.82-4.89Z"/>
    </g>
  </g>
  <g id="Sueter">
    <path class="cls-1" d="M243.27,158.11c.02-1.54,1.58-2.41,1.82-3.93.52-3.24-1.85-7.51-3.9-9.92-6.52-7.63-24.61-6.17-33.55-4.63-7.45,1.28-15.29,3.44-19.18,10.5,6.15,2.4,13.22,6.8,17.47,11.92.45.54,2.68,3.08,1.34,3.44-1.23.33-5.71-4.99-6.89-6.02-16.82-14.65-51.43-16.16-69.56-3.25-1.01.72-6.3,5.61-7.14,4.76-.42-1.89,1.61-2.54,2.41-3.91-1.29.47-4.06.51-5.12,1.06-.82.43-4.55,8.08-5.06,9.41-2.18,5.66.07,9.68,5.58,11.75,1.06.4,4.55,1.03,4.85,1.78.57,1.45-1.31,1.12-2.48.98-1.51-.18-2.87-1.04-4.39-1.16-.47,4.99-4.51,10.88-1.68,15.67,1.33,2.26,1.71,1.95,3.75.72,5.24-3.16,8.13-6.64,14.95-6.47,15.06.38,26.67,1.48,41.02-4.76,2.27-.99,5.27-3.19,7.24-3.91.38-.14.91-.17.69.38-.64,1.54-7.19,5.4-8.93,6.14-13.61,5.74-26.45,4.31-40.62,3.95-5.82-.15-10.69,5.08-15.53,7.7-3.73,2.03-15.26,6.06-17.13,9.08-1.26,2.04-.7,5.65.42,7.6,2.92-.84,5.69-.82,8.68-.53,5.4.53,15.88,2.51,20.79,4.53,3.75,1.55,12.41,7.16,15.41,9.9.77.71,5.31,6.11,5.72,6.02.35-.08.89-.87.75-1.31-.05-.15-1.72-1.59-2.15-2.39-1.96-3.59-1.45-10.25-2.09-14.49-.84-5.56-3.56-12.18-2.66-17.8.08-.52.33-1.2.88-1.37.93,2.75.8,5.67,1.3,8.5.58,3.29,1.76,6.46,2.28,9.77.69,4.42.05,11.97,2.62,15.46,1.16,1.58,5.01,2.74,2.44,4.32l-2.9,6.67.74.48c1.35-.25,5.13,1.71,5.96,1.47.57-.17.88-1.16,1.43-1.61,2.88-2.35,9.82-2.03,13.49-2.78,4.28-.87,9.96-2.58,14.22-3.86,2.96-.89,11.64-3.87,13.22-6.37.99-1.57,3.58-6.87,4.05-8.61.79-2.95.99-5.31-.62-7.99-4.68-7.79-13.07-13.8-14.15-23.82-.06-.57-.42-3.04.66-2.78.59.14,1.95,6.01,2.34,7.01,1.04,2.7,3.12,5.78,4.8,8.15,5.37,7.57,12.48,11.7,8.14,22.11-.73,1.74-3.23,4.62-3.02,6.2.07.49.53,1.04.55,1.28.14,1.39-.1,2.96,0,4.37,7.94.54,15.68,1.36,23.62.27,3.46-.48,4.14-.7,6.52-3.12,3.88-3.93,10.13-10.49,10.25-16.3.06-3.06-5.43-13.8-6.86-17.54-1.96-5.11-3.44-11.62-6.45-16.15-.74-1.11-4.09-3.12-5.4-3.94-3.83-2.4-8.03-4.07-11.73-6.66.7-.34,1.7.12,2.41.31,5,1.33,9.23,3.84,13.41,6.78.37-1.75-2.01-4.91,0-6.02,1,.23,3.04,10.74,5.13,11.75,3.52-3.3,7.56-8.42,8-13.39.3-3.47-.63-8.8-1.3-12.28-.2-1.04-.87-1.99-.85-3.1ZM220.1,191.57c.06-.71.19-2.23.9-2.57.45,1.61.73,3.31.9,4.97.94,9.21-1.22,15.2-4.97,23.35-2.16,4.7-4.73,9.86-7.98,13.86.67-5.64,4.36-10.63,6.68-15.77,1.75-3.87,4.17-9.08,4.48-13.3.25-3.4-.31-7.17,0-10.55ZM227.85,157.13c-1.48.81-8.27,2.28-8.65,4.02-.3,1.38,7.56,2.72,8.43,4.2.07.5.02.49-.45.45-2.62-.19-13.53-2.01-9.2-6.49.77-.8,4.89-2.85,5.89-2.85h4.37c.12.69-.03.48-.38.67Z"/>
    <path class="cls-1" d="M171.58,244.45l2.44,8.41,10.98-2.67-2.29-7.84c-3.76.53-7.3,2.06-11.14,2.1Z"/>
    <path class="cls-1" d="M184.36,241.73l2.29,7.85,10.51-3.65c.47-.73-1.36-5.98-1.48-7.18l-11.32,2.99Z"/>
    <path class="cls-1" d="M126.98,230.59c1.9.16,9.02,3.4,10.34,2.99.37-.11,2.73-5.61,2.58-6.1-2.63-1.95-5.31-4.06-8.52-4.96-.86.17-4.69,7.69-4.41,8.08Z"/>
    <path class="cls-1" d="M119.76,219.75c-.04,1.18-3.4,6.8-3.03,7.22l8.74,3.02c.62-2.91,2.44-5.46,3.91-7.99-.05-.97-8.45-1.47-9.62-2.25Z"/>
    <path class="cls-1" d="M217.71,247.94l2.09-7.7-8.41-.27c-.8,2.77-1.73,5.48-1.84,8.41,2.74.11,5.45-.08,8.16-.43Z"/>
    <path class="cls-1" d="M151.66,239.61c.29-.79,1.07-1.44.35-2.25-3.35-3.33-6.2-6.77-10.56-8.87-.18.93-2.36,5.22-1.99,5.74l12.2,5.39Z"/>
    <path class="cls-1" d="M198.7,245.06c2.41-.71,3.86.16,4.91-2.48.25-.62,1.12-3.82,1.12-4.3v-4.37l-7.5,4.1c.81,2.28,1.36,4.62,1.47,7.05Z"/>
    <path class="cls-1" d="M117.18,219.15c-1.24-.25-5.3-.9-6.27-.56-.69.24-2.53,4.95-2.19,5.39l6.22,1.97c.43-1.03,3.2-5.61,2.99-6.32-.11-.36-.44-.41-.75-.47Z"/>
    <path class="cls-1" d="M163.58,247.77c2.86,2.04,4.38,5.17,8.3,5.42.3-.34-2.03-8.35-2.39-8.62-.57-.43-7.01,1.48-5.9,3.2Z"/>
    <path class="cls-1" d="M219.8,247.77c.98-.3,4.15-.21,4.76-.66.31-.23,2.16-6.35,3.08-7.17l-5.99.34c-.87,2.42-1.68,4.9-1.85,7.49Z"/>
    <path class="cls-1" d="M204.68,245.16c-.35.6-1.61,1.27-1.02,2.03.39.51,3.3.66,4.09.89.14-2.92,1.09-5.64,1.81-8.44l-3.32-.3c0,1.99-.57,4.12-1.56,5.83Z"/>
    <path class="cls-1" d="M106.79,223.66l1.81-5.42c-3.24.15-4.92-.06-6.38,3.11-1.5,3.25,2.7,1.42,4.57,2.32Z"/>
    <path class="cls-1" d="M233.36,239.33l-3.88.33c-.03,1.1-3.15,6.49-2.75,6.89,4.12.11,5.13-4.21,6.63-7.23Z"/>
    <path class="cls-1" d="M153.14,242.28c.14-.09,1.57-2.47,1.56-2.95-.93-.06-3.61,4.28-1.56,2.95Z"/>
  </g>
  <g id="Pelo">
    <path class="cls-2" d="M166.46,49.18c-.22,1.29-.73,3.01,0,4.22-.24-1.39-.24-2.8,0-4.22Z"/>
    <path class="cls-2" d="M166.46,49.18c-.24,1.42-.24,2.83,0,4.22-.07-1.4.05-2.82,0-4.22Z"/>
    <path class="cls-2" d="M166.9,57.01c-.81.2-.14-.8-.74-1.2.11.69.35,1.73.74,1.2Z"/>
    <path class="cls-2" d="M167.36,57.31c.14-.46-.27-.52-.3-.6l-.15.3s0,0-.01,0c-.39.52-.63-.51-.74-1.2,0,.5-.01,1.01,0,1.51h1.2Z"/>
    <path class="cls-2" d="M114.93,160.68l.3.3c.19-.53.09-.63-.3-.3Z"/>
    <path class="cls-2" d="M115.83,159.77c-.46,0-.7.78-.9.9.4-.32.5-.22.3.3.16-.34.8-.61.6-1.21Z"/>
    <path class="cls-2" d="M165.86,54l.3,1.21c-.01-.4.15-1-.3-1.21Z"/>
    <path class="cls-2" d="M166.16,55.21l-.3-1.21c.04.39-.17.99.3,1.21Z"/>
    <path class="cls-2" d="M167.06,56.41l-.3-.9c.11.47.22.63.3.9Z"/>
    <path class="cls-2" d="M166.76,54.91l-.3-.9c.04.62.29.86.3.9Z"/>
    <path class="cls-2" d="M165.56,52.8l.3.9c-.03-.35.02-.66-.3-.9Z"/>
    <path class="cls-2" d="M165.86,53.7l-.3-.9c.06.3-.13.73.3.9Z"/>
    <path class="cls-2" d="M235.46,103.87c1.1-1.53,2.59-3.18,3.92-4.52.14-.14.78-1.05.9-.45.53-2.38,1.72-4.65,1.2-7.23-.66.28-1.07,2.57-1.66,2.71-1.8.42-.43-3.64-.51-4.3-.36-2.96-4.17-12.16-5.61-15.19-.43-.9-1.98-2.93-2.1-3.33-.44-1.55.46-4.41-.51-5.82-.58-.83-1.11,1.29-1.35,1.67-.75,1.22-1.65,2.92-3.32,2.85.27-1.04,1.21-1.69,1.66-2.71.65-1.47,2.07-8.3,1.05-9.34-3.57,1.91-8.75,9.08-12.58,9.58-.58.08-.89.15-1.28-.4,1.23-1.77,3.62-2.38,4.78-4.26,1.38-2.25,2.04-6.27,2.75-8.85l-7.23,6.63-1.06-16.57c-1.82,2.12-2.69,4.98-3.13,7.72-.24,1.51.17,3.64-.79,4.93-1.44,0-3.93-12.37-4.46-14.22-2.52-8.93-5.84-18.35-11.37-25.85l-7.93-4.27c-2.64-1.05-4.11-1.45-5.75,1.29l-3.8,9.61c-1.63,8.17-2.98,11.99-2.41,20.94.19,2.92,1.52,6.45-.15,9.19-.72.05-3.1-4.24-3.63-5.11-.29-.47-.63-2.13-1.05-.78-.99,3.2.09,8.53,1.38,11.6.64,1.52,2.12,2.88,1.64,4.53-.38.29-4.28-3.02-5.28-3.31-.64-.18-.47.4-.42.72.56,3.72,1.91,2.37,4.2,3.34,2.19.93.69,2.8,0,4.36,3.07.02,6.26.88,8.95,2.35.53.29,1.85,1.84,1.54.28-.24-1.22-.74-2.43-.84-3.69-.11-1.41-.08-6.17,2.26-4.07,1.41,1.26,2.78,3.3,4.36,4.68,1.48,1.28,3.32,2.34,4.82,3.62.15.71-.62.48-1.05.45-2.41-.18-4.57-2.77-6.48-4.06l-1.8-1.96c-.67,3.32,1.87,6.59,2.39,9.51.08.46.18.85-.44.74-.51-.09-4.48-3.37-5.67-3.98-1.69-.86-4.07-1.73-5.93-1.61.95.36,3.32,2.75,1.31,3.12-.93.17-3.84-2.83-5.13-2.91-.8-.05-2.44,2.35-5.08,2.07-3.19-.34.88-1.56,1.27-1.77.94-.5,5.38-4.75,4.61-5.48-1.98-.11-3.74.01-5.66.52-.96.25-2.08.99-2.77,1.16-.34.08-.52-.1-.59-.36-.22-.81,1.11-5.61,1.2-7.18.09-1.75-.25-6.85-1.07-8.3-.08-.14-.38-.39-.45-.3-.06.96-.81,4.23-1.5,4.68-.44.29-.46.12-.78-.15-.62-.53-2.74-10.63-3.24-12.43-1.44-5.28-4.79-16.35-8.05-20.43-.83-1.04-2.3-2.6-3.31-3.47-4.93-4.23-6.31-2.06-9.46,2.3-2.32,3.21-6.21,8.43-8.02,11.72-2.59,4.72-5.47,20.46-5.74,26.05-.25,5.32.58,10.62.27,15.94-.44,1.36-2.31-.36-2.8-1.03-.42-.57-.51-1.5-1.07-1.79.28,1.56.64,3.4,1.35,4.82.7,1.4,2.17,2.12,1.59,4.01-.61,2-3.64-.57-4.76-.99.38,1.92,2.5,3.2,4.35,3.33,1.39.09,4.55-1.1,3.58,1.12-.57,1.3-3.75,1.25-4.99.89-1.53-.45-2.52-1.61-3.63-2.09-1.85-.81-5.09-.85-7.53-1.81-1.78-.7-3.32-1.83-5.04-2.64.58,5.79,10.06,7.88,10.26,13.42.06,1.78-1.79,2.33-2.11.88-.4-1.77-.45-3.83-3-2.37-2.86,1.64-2.83,4.96-2.75,7.82.06,1.99,1.31,5.59-2.25,2.85l-2.86-4.82c-2.07,7.23-1.51,12.4,2.05,18.88.66,1.2,3.42,4.45,3.04,5.63-.59,1.85-4.46-1.96-5.3-2.46-2.71-1.63-5.7-2.37-8.84-1.56-.1.74.39,1.24.78,1.78,1.31,1.79,3.24,3.52,4.63,5.31.99,1.27,4.62,6.9,5.42,7.24.36.15.83.12,1.22.14-1.94,3.37-6.75,1.54-9.94,1.81,1.4,5.99,7.61,7.82,12.65,9.79-2.43,1.36-5.06,1.76-6.62,4.37,4.61-.47,9.29-.51,13.86.31.12,1.3-2.18,1.48-2.56,2.1-.78,1.29.71,4.51,1.67,5.57,1.92,2.14,1.97.38,3.63-.87,1.22-.92,4.03-2.1,5.5-1.64,1.2.37-.44,1.75-.1,2.07l2.11-.3c-1.24-3.33-.2-6.54,1.5-9.49-1.47.03-2.87.66-4.36.77-.73.05-4.36.1-4.64-.36-1.12-1.79,2.55-7.08,3.57-8.69-3.46.45-6.55-2.2-7.39-5.42-1.44-5.53,4.38-2.38,4.98-3.02.08-.08-.11-1.74.6-2.11-1.17.35-4.68-.07-6.02-.31l5.11-2.86c0-.25-2.34-1.05-2.56-1.05h-5.27c2.44-2.28,6.15-3.15,9.34-2.71l-4.21-9.64c1.85,1.43,4.33,4.27,6.48,5.12.45.18.48-.08.46-.45-.08-1.39-1.18-2.92-.76-4.37l5.87,4.67c.19.24.53,1.31.61,1.65l.52-.96c-.81-12.11,8.35-23.16,19.72-26.48,22.73-6.64,31.6,21.6,19.03,36.67l-.09,1.02c.57-.05,1.03.19,1.52.44,4.55,2.27,9.64,6.57,14.61,7.09,3.56.37,6.77.07,10.23,0,4.09-.1,8.96.11,12.97-.29,3.84-.39,5.38-4.75,5.58-8.13-.71-.52-.67-.64-1.74-.83-7.37-1.3-13.49-.35-17-8.61-6.06-14.27,4.66-35.76,22.12-32.37,10.56,2.06,18.67,9.58,21.03,20.11-.15-.72.28-.92.6-1.36ZM155.47,81.13c-1.22,1.77-2.57-3.58-3.02-3.62-.88.32-4.56,4.34-5.27,3.61-.94-.97,3.79-5.48,5.04-5.67,1.93-.29,4.08,4.48,3.25,5.68ZM210.3,79.01c-1.51.37-2.35-3.86-3-3.91-1.21.21-3.08,3.72-3.88,3.59-2.46-.42,2.02-5.42,3.35-5.66,1.44-.26,2.1.96,2.73,1.97.37.6,2.03,3.65.81,4.01Z"/>
    <path class="cls-2" d="M99.99,224.26c-1.41-2.27-3.77-3.72-5.25-6.02-.38,2.45.83,4.54.9,6.93-3.24-.98-6.2-4.04-9.94-3.16.37.64.81,1.16,1.35,1.67.35.34,3,1.98,2.57,2.4-1.98-.49-4.41-.56-6.33-1.2-2.66,1.01-5.52,0-6.93-2.41,1,.03,2.07.3,3.01.6-3.85-2.64-6.87-5.23-8.74-9.64,0,.62-.57,1.91-.61,2.85-.03.81.59,3.94-.18,4.1-3.31-.75-6.06-3.16-9.28-4.27-.8-.56-.5-1.83-.34-2.7.21-1.14,3-9.18,3.64-9.33,1.91,1.49,3.49,3.89,4.97,5.88.27.36.79.6.9.75-.06-.81-.2-1.61-.3-2.41-1.72-.73-3.4-2.51-2.56-4.52.8.87,1.15,2.14,2.26,2.71-.21-3.75.34-7.42.6-11.15-1.88,2.5-2.35.84-.91-1.36.07-.1,1.25-1.56,1.51-1.05.22-.75.41-1.29.6-2.11l-5.27,5.42c-.62,0-2.68-7.69-2.82-8.82,2.72-2.89,5.05-6.26,8.24-8.66-.77,3,1,5.8.76,8.74.74-1.61.99-3.45,1.51-5.12-1.64.49-.77-2.12-.15-3.01l.15,3.01c1.27-4.13,2.71-8.2,3.92-12.36-.94.63-1.04.35-.83-.68.2-.98.81-2.43,1.74-2.93.29-1.04,1.03-2.12.9-3.31-.31.59-1.19,1.39-1.63,2.13-.72,1.21-2.33,5.55-3.76,3.7-.69-.9-1.39-2.24-2.15-3.27-.61-.82-1.86-1.36-1.68-2.58.11-.77,3.08-7.18,3.64-8.14.34-.58.67-1.08,1.22-1.49l4.43,6.41c.3.69.32,1.59.24,2.33.34-1.25.91-2.94.9-4.22-1.92-.69-2.87-2.56-2.71-4.52.53-.59,2.6,3.37,2.71,3.92,1.36-6.86-.88-12.98-5.73-17.78.16,1.37.5,3.1.54,4.45,0,.39-.22.75-.54.53-.99-.69-1.88-4.52-.3-5.28-.94-.89-1.61-1.16-2.41-1.81l.88,7.34c-.18.57-.87.52-1.33.52-.97,0-6.72-1.43-7.11-2.03-.44-.69-1.08-4.07-1.55-5.31-.38-.99-2.18-2.8-.51-3.41l9.62,2.9c-1.1-.89-2.11-1.86-3.31-2.71-1.05,1.32-5.08-1.15-5.12-1.96-.02-.57,1.81-.25,2.1-.15-.87-1.4-2.38-2.14-3.47-3.31-2.84-3.05-4.75-6.86-5.87-10.85h-1.81c.01-.5-.02-1.01,0-1.51-.99,1.13.32,8.08,0,8.44-.51.13-.6-.2-.91-.45-1.51-1.21-2.94-3.9-4.82-4.98,1.12,2.08,1.95,4.96,2.71,7.23-1.82-1.76-3.86-3.76-3.94-6.48-.02-.62-.13-1.4.62-1.66-.54-.76-4.84-4.82-5.56-5.14-3.13-1.4-9.1-1.11-12.52-.89.62.85-.12,1.93-.6,2.71-.47.75-.65,1.07-1.51,1.66,2.81.96-.08,1.66-.91,2.86,3.31,4.81,5.11,9.91,10.78,12.58,3.84,1.81,10.2,2.37,10.92,7.61,2.56-.44,7.48-.37,9.47,1.54.48.46.44,1.06.52,1.13.15.13,1.25.02,1.78.18,2.01.61,4.25,4.92,4.95,6.8,5.32,14.27-1.59,28.92-9.49,40.67-.57.06-.24-.63-.21-.96.17-1.78.68-3.54.51-5.36l-2.84,3.93-1.68,10.23c-.7.15-.48-.09-.67-.39-.42-.66-.7-1.9-1.43-2.32.13,2.78.76,5.5.61,8.3-.49,9.18-2.9,13.18-.01,23.04l.37-.23c5.37,12.55,16.45,21.57,29.63,24.91,6.2,1.57,12.87,2.3,18.81-.58-.82,2.45-1.8,4.95-2.11,7.53,2.15-1.87,4.13-3.93,6.65-5.31-4.13-9.22-6.58-19.39-3.51-29.34ZM43.06,115.17c2.32.63-2.51,1.85-3.31,1.82-.73-.02-1.42-.38-2.08-.65-.44-.18-1.48-.72-1.7-1.17,1.88.33,5.44-.45,7.08,0ZM35.98,127.83c-.45.52-.66-.4-.78-.56-1.47-2.08-2.33-4.86-3.14-7.27,2.35-.26,4.29,7.4,3.92,7.83ZM40.8,132.05c2.01-2.17,5.71-2.31,7.83-.3-2.65-.17-5.24,1.05-7.83.3ZM48.93,129.03c-.38.42-9.07.51-9.81.02-1.19-.77-3.42-9.29-4.65-11.01l.75-.46c1.94.44,7.64-.02,9.06.88.92.58.87,2.04,1.28,2.94.47,1.05,3.84,7.09,3.37,7.62ZM61.89,143.5c-1.19-.41-2.04-6.65-1.8-6.93.61-.13.69.3.97.68,1.17,1.57,1.33,4.39.83,6.25ZM72.13,170.32c-.76-.37-3.89-3.94-3.31-4.52.79-.79,3.99,3.29,3.31,4.52ZM71.23,154.35c.32,2.73-.73,5.44-3.31,6.63-.24-.29,2.51-6.1,3.31-6.63ZM65.64,146.84c-.21-.1-1.04-.17-.43-.63.08-.06,1.79-.28,1.99-.27,1.41,0,2.98,1.23,3.73,2.38-1.61-.08-3.85-.74-5.3-1.48ZM67.31,178.16c-.11,3.05-2.08,5.02-4.82,6.03-.49-.54,3.91-5.64,4.82-6.03ZM61.59,190.51c2.19.88,2.67,3.38,1.8,5.42-.68.53-2.21-4.79-1.8-5.42ZM57.07,213.11l3.01-7.83c.08.75.55,1.57.59,2.3.1,1.74-1.82,4.96-3.6,5.53ZM62.51,219.57l-1.22-1.64c2.41.23,4.95,1.29,5.42,3.91l-4.2-2.28ZM73.95,235.26c-.03.11-.52.54-.6.45l-2.12-7.68c.65-.5,2.72,2.19,2.72,2.41,0,1.17.23,3.92,0,4.82ZM86.6,240.23l-7.83-.75c1.79-2.06,5.07-1.61,7.14-.21.39.26.82.34.69.96ZM87.98,236.64c-.43.59-10.25.26-10.95-.4-1.13-1.06-1.67-8.29-2.73-10.1l.24-.83,11.76,2.12c.47.48,1.96,8.83,1.68,9.21ZM91.12,232.4c-2.55-.73-2.25-3.87-2.41-6.03,1.22.19,2.63,5.78,2.41,6.03Z"/>
    <path class="cls-2" d="M172.39,255.55c-1.69-.7-3.48-.86-5.12-1.81-2.38-1.37-4.24-4.47-6.62-5.74-2.2-1.17-7.49-.84-8.22-3.24-.27-.89.2-1.71.14-1.79-.22-.32-4.08-2.36-4.79-2.74.53.87.18,1.87.37,2.8.19.93,2.04,2.96.64,3.86-1.9,1.21-7.23-1.07-9.44-1.23.8-1.72,5.66-1.6,6.26-2.48.29-.43.57-2.84.97-3.55-1.76-.88-3.53-1.74-5.42-2.41l-2.86.9-9.19-.91c.02-.42.8-.64,1.15-.81.63-.3,2.84-1.26,3.37-1.3-9.83-2.93-19.07-7.78-29.12-9.91-.63-.05-1.28-.09-1.92-.04-.08,3.73-.15,6.97.69,10.61.61,2.67,1.22,5.41,1.86,8.08,1.6,6.72,4.55,13.06,11.61,15.36-1.68-1.83-3.34-3.77-4.27-6.12-.21-.52-1.51-4.13-.4-4.12,3.81,6.41,9.62,12.47,17.63,12.35-1.75-1.46-4.18-2.62-5.12-4.82h6.03c1.67,7.46,6.69,13.76,12.36,18.68,3.89,1.17,5.09.85,8.86.94,1.37.03,3.14.76,4.56.87,4.31.34,7.44-1.9,7.07-6.47-.08-1.01-1.34-3.43-.62-3.94,1.32-.63,1.81.78,2.14,1.81.67,2.05.45,4.53-.32,6.49,4.55.43,8.33-4.17,5.42-8.28-.49-.7-2.18-1.66-1.48-2.84.61-1.04,3.09,1.58,3.43,2.1.77,1.19,1.09,3.11,1.07,4.51,9.27-1.91,6.49-11.84-.7-14.82Z"/>
    <path class="cls-2" d="M206.24,251.83c-1.73-1.53-4.9-2.68-4.83-5.27-8.58,2.56-16.73,6.6-25.61,8.14l2.41,1.95c2.65,2.21,1.9,5.84,2.78,8.37.38,1.09,4.52,4.17,5.68,4.87,2.69,1.61,12.19,6.25,10.38-.74-.28-1.08-2.87-3.46-1.47-3.88,1.86-.56,3.6,3.15,3.73,4.65.16,1.83-1.06,2.94,2.35,2.05,3.29-.87,2.94-5,2.32-7.64-.16-.71-1.78-3.68-.31-3.63,1.51.05,2.43,3.43,2.56,4.7.11,1.11-.07,2.33,0,3.46,2.6-.79,4.54-3.19,4.82-5.88.51-5-1.21-7.96-4.81-11.15Z"/>
    <path class="cls-2" d="M230.65,247.61c-7.56,2.34-15.62,3.1-23.51,2.58,4.85,4.05,7.43,9.49,5.15,15.77,3.6,3.51,13.89,6.29,11.34-2.28-.32-1.09-2.98-4.69-2.32-5.36,1.16-1.17,3.56,3.32,3.85,4.13.71,1.99,1.1,4.17.07,6.11,4.33-.86,7.59-3.06,6.9-7.96-.19-1.38-2.17-3.88-1.64-4.7.72-1.1,2.33,1.34,2.62,1.91.14.28.85,2.05.85,2.16v4.37c6.13-4.15.72-12.9-3.31-16.74Z"/>
    <path class="cls-2" d="M69.12,206.78l.3,1.21c-.06-.52-.3-1.14-.3-1.21Z"/>
  </g>
  <g id="Pelo_Blanco" data-name="Pelo Blanco">
    <g>
      <path class="cls-3" d="M205.46,135.58c-8.45.6-16.87.64-25.27.14-4.91-1.99-9.66-4.42-14.24-7.27l-.39-.62-1.01.21c-13.09,13.97-35.84,11.33-37.45-9.98l-.71-.47c-.55.05-.91-.38-1.06-1.27l-4.71-3.72c1.19,3.76.54,4.88-1.93,3.35l-3.26-2.61,2.89,6.62c.06,1.06-.9,1.45-2.88,1.17-2.37.39-4.65,1.12-6.84,2.19,1.35-.61,4.35-1.18,5.27,0,.58-1.11,3.88.48,2.62,1.71l-3.22,1.8c.05.21,3.02.29,3.5.21l.56.51c.09-.03.53-.77,1.4-.82,1.67-.08,3.52,1.78,3.11,3.53-1.49.15-1.69-1.9-3.31-1.5l1.21,3.01c-2.02.62-4.21-.48-6.33-.3,1.06,2.97,2.65,5.1,6.1,4.45,1.03-.2,4.11-2.7,4.14-1,.01.74-4.75,6.93-5.48,8.4-.33.67-.68,1.2-.55,2.01,2.26-.21,4.19-.24,6.32-1.06,2.25-.86,4.02-2.51,6.03-3.76-1.29-2.45-2.69-5.14-3.53-7.77-.15-.48-1.01-3.04-.97-3.21.61-2.67,4.92,3.98,5.25,4.35,1.63,1.82,4.31,4.67,6.58,5.48,4.48,1.6,9.16.46,13.77.55-1.33,1.66-4.04,2.67-6.04,3.45-4.18,1.65-12.05,4.14-14.46-1.35-2.23,1.97-7.96,9.86-5.58,12.66.17.2,3.55.62,3.86.55.58-.13,4.51-3.29,5.73-3.92,13.71-7.06,32.26-6.65,46.97-3.47,1.76.38,3.45.95,5.18,1.44,4.11-8.28,13.97-10.72,22.43-11.83.54-2.22,3.23-7.53,2.31-9.59-.17-.38-.71-.66-1.05-.91,1.36,2.97-1.69,8.16-5,8.65ZM183.03,142.16c-1.4.72-1.37-1.26-1.79-1.84-.46-.63-2.58-1.08-2.72-1.82-.11-.64,1.14-1.19,1.68-1.23,2.96-.19,4.61,3.97,2.82,4.89Z"/>
      <path class="cls-3" d="M118.32,119.95l-2.89-6.62,3.26,2.61c2.47,1.53,3.11.41,1.93-3.35l4.71,3.72c.16.9.51,1.32,1.06,1.27-.08-.35-.42-1.42-.61-1.65l-5.87-4.67c-.42,1.44.69,2.98.76,4.37.02.38,0,.63-.46.45-2.15-.85-4.63-3.69-6.48-5.12l4.21,9.64c-3.19-.44-6.9.43-9.34,2.71,2.19-1.07,4.47-1.8,6.84-2.19,1.97.28,2.93-.11,2.88-1.17Z"/>
      <path class="cls-3" d="M204.88,135.06c-4,.41-8.87.2-12.97.29-3.46.08-6.67.38-10.23,0-4.97-.52-10.06-4.82-14.61-7.09-.49-.24-.95-.48-1.52-.44l.39.62c4.58,2.85,9.33,5.27,14.24,7.27,8.4.51,16.83.46,25.27-.14,3.3-.49,6.36-5.69,5-8.65-.2,3.38-1.74,7.74-5.58,8.13Z"/>
      <path class="cls-3" d="M108.6,123.31h5.27c-.93-1.18-3.93-.61-5.27,0Z"/>
      <path class="cls-3" d="M113.28,126.82l3.22-1.8c1.26-1.22-2.04-2.82-2.62-1.71.22,0,2.56.81,2.56,1.05l-5.11,2.86c1.34.23,4.85.66,6.02.31l-.56-.51c-.48.08-3.46,0-3.5-.21Z"/>
      <path class="cls-3" d="M255.8,119.1c-.9-.11-3.48.46-3.47-.76,0-.96,4.26-2.54,5.29-3.47,2.83-2.56,3.91-7.78,3.77-11.45-.99-1.02-8.97,6.11-10.15,6.88-.51.33-.91.77-1.6.65-.71-.66,5.14-6.17,5.72-6.78-3.18-2.37-7.56-.16-11.14-.15,1.47-3.53,2.45-7.33,1.81-11.15-.38-.45-1.31,1.19-1.45,1.41-1.37,2.32-1.66,4.8-3.75,6.73-.27.25-.2.57-.23.59-1,.72-.41-2.19-.3-2.71-1.67,2.26-3.48,4.37-5.42,6.33,1.12,4.98.88,10.66-.98,15.45-3.24,8.35-12.43,12.33-20.99,11.7.19.87-1.55,4.04-1.53,4.34.01.22.34.33.62.33,1.06-.02,2.42-.42,3.45-.48,8.68-.52,17.82-.41,25.38,4.45,1.68,1.08,2.35,2.79,4.9,2.18-.43-3.5-4.52-4.13-6.33-6.62,1.89-.58,3.92-.23,5.83.04,3.6.5,8.9,2.61,12.13,2.64,1.81.02,2.29-1.13,2.21-2.79-.2-3.98-6.02-8.56-8.41-11.5-.28-.35-1.58-1.9-1.21-2.25,3.78.38,8.45.44,11.74-1.66.03-1.02-5-1.85-5.87-1.95ZM239.08,130.7c-1.93,2.76-8.51,3.01-11.62,2.88-.61-.03-3.82-.33-4.06-.46-.55-.31-.1-.54.22-.7,4.74-2.44,8.96-1.66,11.59-7.39,1.37-2.98,2.57-6.92,2.96-10.15.73.32.82,1.46,1,2.16.9,3.46,2.01,10.65-.1,13.66Z"/>
      <path class="cls-3" d="M239.38,99.35c-1.34,1.33-2.82,2.98-3.92,4.52-.32.44-.75.64-.6,1.36,1.94-1.96,3.75-4.07,5.42-6.33-.13-.6-.76.31-.9.45Z"/>
      <path class="cls-3" d="M130.33,257.12c.06-.21.16-.42.27-.62l-.35.6c-.85.19-3.34.16-4.78-.21,1.18,1.43,2.59,2.66,4.25,3.67.82,2.25-3.39,1.11-4.89.66-5.39-1.61-9.54-6.11-12.5-10.7.58,3,2.3,5.53,4.38,7.75,1.02,2.57-2.49.58-3.81-.23-3.59-2.23-6.25-6.7-7.41-10.69-1.93-6.62-4.06-14.31-3.48-21.24.03-.39.29-.7.57-.95-.29.02-.59-.08-.87.03-2.61,8.62-.84,18.28,3.12,26.19,5.23,10.44,13.97,11.71,24.87,11.75.73.59-2.2,1.36-2.11,1.8,3.61-.23,3.19,1.29,4.69,3.3,2.89,3.88,6.11,5.57,10.68,6.95-4.18-1.21-13.57-14.64-12.62-18.06Z"/>
      <path class="cls-3" d="M125.39,256.81l-.82-.31c.18.16.5.29.9.39-.03-.03-.05-.06-.08-.09Z"/>
      <path class="cls-3" d="M130.6,256.51c-.11.2-.21.4-.27.62-.94,3.42,8.44,16.85,12.62,18.06-5.67-4.92-10.69-11.22-12.36-18.68Z"/>
      <path class="cls-3" d="M125.47,256.9c1.44.37,3.93.39,4.78.21l.35-.6h-6.03l.82.31s.05.06.08.09Z"/>
      <path class="cls-3" d="M102,226.12c-.58,6.93,1.54,14.62,3.48,21.24,1.17,3.99,3.82,8.47,7.41,10.69,1.32.82,4.83,2.8,3.81.23-2.08-2.22-3.8-4.75-4.38-7.75,2.97,4.59,7.11,9.09,12.5,10.7,1.51.45,5.71,1.58,4.89-.66-1.65-1.01-3.07-2.24-4.25-3.67-.4-.1-.72-.23-.9-.39.94,2.2,3.37,3.36,5.12,4.82-8.01.13-13.82-5.94-17.63-12.35-1.11-.01.19,3.6.4,4.12.93,2.35,2.59,4.29,4.27,6.12-7.06-2.3-10.01-8.64-11.61-15.36-.64-2.67-1.25-5.41-1.86-8.08-.84-3.64-.77-6.88-.69-10.61-.29.25-.54.56-.57.95Z"/>
      <path class="cls-3" d="M97.93,252.5c-18.74,5.49-40.74-7.49-47.79-25.22,3.62,12.37,12.7,21.28,25.01,25.02.09.44-.35.3-.66.39-1.95.53-4.05.58-5.97,1.27-.39.14-3.25,1.38-2.72,1.95,9.56,2.61,19.66,3.52,28.62-1.5.17,1.04-.81,1.42-1.33,2.13-1.71,2.37-4.04,5.04-3.79,8.11,3.17-.89,5.22-3.71,7.53-5.72l-.47-.91c.38-1.87.9-3.71,1.55-5.51Z"/>
      <path class="cls-3" d="M80.15,251.96c-13.18-3.35-24.27-12.37-29.63-24.91l-.37.23c7.05,17.73,29.04,30.71,47.79,25.22-.65,1.8-1.17,3.63-1.55,5.51l.47.91c.31-2.58,1.28-5.08,2.11-7.53-5.94,2.87-12.61,2.15-18.81.58Z"/>
      <path class="cls-3" d="M206.54,87.15c-12.08,2.5-17.52,20.04-12.71,30.34,2.12,4.55,6.94,6.12,11.65,6.43.35.02,1.67.22,1.67-.31-5.56-1.72-7.96-7.16-8.7-12.55-1.06-7.7.44-16.04,5.69-21.96l2.41-1.96Z"/>
      <path class="cls-3" d="M43.14,135.52c-8.15-1.83-12.52-7.12-16.3-14.29l.1-.94c-1.44-2.09-3.28-4.28-4.82-6.33-.26.1-.79-.25-.59.44.23.78,3,5.17,3.66,6.29,2.03,3.4,8.17,13.81,11.4,15.12,1.51.61,7.94,1.2,8.41,2.74.35,1.13-1.83,1.41-2.61,1.87-1.38.82-2.84,2.94-2.8,4.58,2.85-2.17,5.41-3.89,9.04-4.52l-.68-.37c-.51-2.42-2.65-3.74-4.82-4.59Z"/>
      <path class="cls-3" d="M37.71,132.87c-5.67-2.67-7.46-7.77-10.78-12.58l-.1.94c3.78,7.17,8.15,12.46,16.3,14.29,2.16.85,4.31,2.17,4.82,4.59l.68.37c-.72-5.24-7.08-5.81-10.92-7.61Z"/>
      <path class="cls-3" d="M217.2,130.5l3.5-.86c-2.52.64-4.81-.28-7.23-.91-.49,2.63,1.96,1.7,3.73,1.77Z"/>
      <path class="cls-3" d="M150.18,135.06l-3.62-.75c-15.96-3.81-10.92-34.01-1.5-41.44.34-.27,1.09-.31,1.21-.9-.74-.26-1.16.45-1.51.6-6.39,2.66-11.18,6.3-14.28,12.69-6.87,14.16,2.16,33.99,19.7,29.79Z"/>
    </g>
  </g>
  <g id="Marcas">
    <path class="cls-4" d="M138.6,17.57c3.78-1.35,7.67,2.85,9.17,5.99-2.25-6.12-3.59-12.4-8.81-16.8-.35-.2-.8-.11-1.14.07-1.02.54-4.3,8.76-4.97,10.4-2.24,5.5-4.27,11.14-5.88,16.87,1.19-3.09,8.83-15.55,11.62-16.54Z"/>
    <path class="cls-4" d="M144.46,20.1c1.01.87,2.48,2.43,3.31,3.47-1.5-3.15-5.39-7.34-9.17-5.99-2.79.99-10.43,13.45-11.62,16.54,1.81-3.29,5.7-8.51,8.02-11.72,3.15-4.35,4.53-6.53,9.46-2.3Z"/>
    <path class="cls-4" d="M132.34,143.43c4.02,3.41,13.19-.62,17.18-2.9-7.79.87-14.37.52-19.23-6.28.06-.24-4.14-5.43-4.21-4.69-.03.34,1.36,4.14,1.59,4.69.72,1.75,1.54,3.46,2.44,5.13l-.1,1.1c.48.91.42,1.09.6,1.51.65.15,1.23.63,1.74,1.44Z"/>
    <path class="cls-4" d="M145.05,143.34c2-.79,4.71-1.79,6.04-3.45-4.61-.08-9.28,1.05-13.77-.55-2.27-.81-4.94-3.66-6.58-5.48-.33-.37-4.64-7.02-5.25-4.35-.04.16.82,2.73.97,3.21.84,2.63,2.24,5.32,3.53,7.77l.1-1.1c-.89-1.67-1.71-3.38-2.44-5.13-.23-.55-1.62-4.35-1.59-4.69.07-.74,4.27,4.45,4.21,4.69,4.86,6.8,11.44,7.14,19.23,6.28-3.98,2.28-13.16,6.31-17.18,2.9-.51-.81-1.09-1.29-1.74-1.44,2.4,5.49,10.27,3,14.46,1.35Z"/>
    <path class="cls-4" d="M194.79,16.94c-2.56-3.47-6.72-8.58-10.1-11.14-10.6-8.03-5.96,5.36-6.16,10.71-.08,2.11-.79,4.94-1.22,7.07.86-4.1,2.3-7.87,4.33-11.3,3.49-2.79,10.25,2.38,13.15,4.67Z"/>
    <path class="cls-4" d="M186.85,12.66l7.93,4.27c-2.9-2.29-9.66-7.46-13.15-4.67-2.02,3.44-3.47,7.2-4.33,11.3l3.8-9.61c1.64-2.74,3.11-2.34,5.75-1.29Z"/>
    <path class="cls-4" d="M63.97,204.95c-.73,1.45-3.97,9.37-3.26,10.42.28.41,8.43,4.43,8.9,4.17-.31-2.03-.18-3.97.38-5.82l.65-.3c0-.46-.59-2.27-.9-2.71l-.58.3c-1.69-2.03-3.41-4.05-5.18-6.05Z"/>
    <path class="cls-4" d="M68.83,209.95c-1.48-1.98-3.07-4.39-4.97-5.88-.64.15-3.42,8.18-3.64,9.33-.16.88-.46,2.15.34,2.7,3.21,1.1,5.97,3.51,9.28,4.27.77-.16.15-3.29.18-4.1.04-.95.61-2.23.61-2.85l-.65.3c-.56,1.85-.69,3.8-.38,5.82-.47.26-8.62-3.76-8.9-4.17-.71-1.05,2.53-8.97,3.26-10.42,1.77,2,3.49,4.02,5.18,6.05l.58-.3c-.11-.15-.63-.39-.9-.75Z"/>
    <path class="cls-4" d="M70.28,180.23c-.47-.19-6.52,6.8-6.8,7.36-.18.36,1.86,6.79,2.26,7.69l4.46-4.58.73.11c.26-1.11.81-2.15.9-3.31l-.58-.5c-.34-2.25-.67-4.51-.97-6.77Z"/>
    <path class="cls-4" d="M71.08,178.76c-3.19,2.4-5.52,5.77-8.24,8.66.14,1.13,2.2,8.82,2.82,8.82l5.27-5.42-.73-.11-4.46,4.58c-.4-.9-2.44-7.33-2.26-7.69.28-.57,6.34-7.55,6.8-7.36.3,2.26.63,4.52.97,6.77l.58.5c.25-2.94-1.52-5.74-.76-8.74Z"/>
    <path class="cls-4" d="M74.54,154.45c-.48-.15-4.22,8.59-4.09,9.07,1.4,1.69,2.73,3.45,3.98,5.27,1.29-1.86,2.58-3.74,3.87-5.63l.76-.06c.16-.3.26-.56.3-.9l-.57-.36c.57-1.18-3.84-7.24-4.26-7.38Z"/>
    <path class="cls-4" d="M79.14,159.86l-4.43-6.41c-.55.42-.88.91-1.22,1.49-.56.95-3.52,7.37-3.64,8.14-.18,1.22,1.07,1.76,1.68,2.58.77,1.03,1.46,2.37,2.15,3.27,1.43,1.85,3.03-2.49,3.76-3.7.44-.74,1.32-1.54,1.63-2.13l-.76.06c-1.29,1.89-2.58,3.77-3.87,5.63-1.25-1.82-2.58-3.58-3.98-5.27-.13-.48,3.61-9.22,4.09-9.07.42.13,4.83,6.2,4.26,7.38l.57.36c.09-.73.06-1.64-.24-2.33Z"/>
    <path class="cls-4" d="M145.08,244.15c-.27.03-4.57,1.04-4.33,1.14,1.04.39,8.68,2.59,7.89.27-.85-1.65-1.73-3.56-.86-5.32-.41-.22-.8-.4-1.21-.6.71.9-.05,4.19-1.5,4.52Z"/>
    <path class="cls-4" d="M139.34,245.65c2.21.16,7.54,2.44,9.44,1.23,1.41-.9-.44-2.93-.64-3.86-.19-.92.16-1.93-.37-2.8-.87,1.76.01,3.67.86,5.32.79,2.32-6.84.13-7.89-.27-.25-.09,4.05-1.1,4.33-1.14,1.44-.33,2.21-3.62,1.5-4.52-.41.71-.68,3.12-.97,3.55-.6.88-5.46.75-6.26,2.48Z"/>
    <path class="cls-4" d="M130.9,236.79c3.45.53,6.86.67,10.24.43-1.36-.48-6.44-2.2-7.53-2.11-.43.77-1.33,1.33-2.71,1.68Z"/>
    <path class="cls-4" d="M129.09,237.22l9.19.91,2.86-.9c-3.38.24-6.8.1-10.24-.43,1.37-.35,2.28-.91,2.71-1.68-.53.04-2.74,1-3.37,1.3-.35.17-1.13.39-1.15.81Z"/>
    <path class="cls-4" d="M49.03,123.73c1.75,2.64-.02-1.5-.62-2.86l.23-.88c-.17-.31-.4-.62-.6-.9-.06,1.72-.05,3.06,1,4.64Z"/>
    <path class="cls-4" d="M47.41,120.75c.07,2.72,2.12,4.72,3.94,6.48-.76-2.27-1.59-5.15-2.71-7.23l-.23.88c.6,1.36,2.37,5.5.62,2.86-1.04-1.58-1.06-2.92-1-4.64-.75.26-.64,1.04-.62,1.66Z"/>
    <path class="cls-4" d="M77.75,223.26c1.52,1.16,3.37,1.7,5.54,1.6-1.27-.43-2.48-1.35-3.92-1.81-.38.44-.92.5-1.62.2Z"/>
    <path class="cls-4" d="M83.29,224.86c-2.17.09-4.02-.44-5.54-1.6.7.3,1.24.23,1.62-.2-.94-.3-2.01-.57-3.01-.6,1.41,2.4,4.27,3.42,6.93,2.41Z"/>
    <path class="cls-4" d="M68.52,134.76c-.85-.6-2.1-1.81-3.01-2.11l-.42.52c-1.89-.12,2.51,1.68,3.43,1.59Z"/>
    <path class="cls-4" d="M63.4,132.8c.03.81,4.07,3.27,5.12,1.96-.93.09-5.32-1.71-3.43-1.59l.42-.52c-.3-.1-2.13-.42-2.1.15Z"/>
    <path class="cls-4" d="M74.55,139.58c-.1-.1-.2-.2-.3-.3-.3,1.36-.2,1.46.3.3Z"/>
    <path class="cls-4" d="M74.55,144.56c.32.22.55-.14.54-.53-.03-1.35-.37-3.07-.54-4.45-.5,1.16-.6,1.06-.3-.3-1.58.75-.69,4.59.3,5.28Z"/>
    <path class="cls-4" d="M80.27,157.97c0-.19.03-.44,0-.6-.25-.03-.25.17,0,.6Z"/>
    <path class="cls-4" d="M77.56,153.45c-.16,1.96.79,3.83,2.71,4.52-.25-.43-.25-.63,0-.6-.11-.54-2.18-4.5-2.71-3.92Z"/>
    <path class="cls-4" d="M55.8,117.89l.37.6c-.42-1.49-.54-3.02-.91-4.52-.43-.07-.41.52-.51.84-.24.75-.36,1.38-.39,2.17.42.72.9,1.02,1.44.9Z"/>
    <path class="cls-4" d="M54.36,118.49h1.81s-.37-.6-.37-.6c-.54.11-1.02-.19-1.44-.9-.02.5.01,1.01,0,1.51Z"/>
    <path class="cls-4" d="M26.94,120.3c-.26-.66.21-1.33,1.4-2-1.78-.59-.21-2.49,1.01-2.52-.1-.95.1-1.86.6-2.71-.3.02-.61-.02-.9,0-.16.01-.6.26-1.21.3-1.06.07-2.5-.3-3.31.3-1.06,0-1.41-.07-2.41.3,2.05,1.11,4.43,4.05,4.82,6.33Z"/>
    <path class="cls-4" d="M28.34,118.3c-1.19.67-1.66,1.33-1.4,2,.83-1.2,3.72-1.9.91-2.86.86-.59,1.04-.91,1.51-1.66-1.21.03-2.78,1.94-1.01,2.52Z"/>
    <path class="cls-4" d="M29.35,115.78c.48-.78,1.22-1.86.6-2.71-.5.85-.7,1.76-.6,2.71Z"/>
    <path class="cls-4" d="M22.11,113.97c1.54,2.05,3.38,4.24,4.82,6.33-.39-2.28-2.77-5.22-4.82-6.33Z"/>
    <path class="cls-4" d="M27.84,113.37c.61-.04,1.05-.29,1.21-.3l-1.21.3Z"/>
    <path class="cls-4" d="M69.43,208.29c-.01-.1.01-.2,0-.3l-.3-1.21c0-.1,0-.2,0-.3l-.62.33c-1.63-1.76-1.33-1.27.92,1.48Z"/>
    <path class="cls-4" d="M66.86,203.77c-.84,2.01.84,3.79,2.56,4.52-2.25-2.75-2.55-3.24-.92-1.48l.62-.33c-1.11-.57-1.46-1.84-2.26-2.71Z"/>
    <path class="cls-4" d="M69.03,195.24l.69.09c.65-.86.37-1.63.6-2.41-.42.54-2.33,3.33-1.3,2.32Z"/>
    <path class="cls-4" d="M68.82,193.97c-1.44,2.2-.98,3.86.91,1.36l-.69-.09c-1.04,1.01.88-1.78,1.3-2.32-.26-.51-1.44.95-1.51,1.05Z"/>
    <path class="cls-4" d="M76.86,169.8c.04.11.2.17.4.22.35-1.2.58-2.42.9-3.62-.4.49-1.47,2.93-1.31,3.4Z"/>
    <path class="cls-4" d="M76.43,169.34c-.21,1.03-.1,1.31.83.68-.2-.05-.37-.11-.4-.22-.17-.47.91-2.91,1.31-3.4-.92.5-1.54,1.95-1.74,2.93Z"/>
    <path class="cls-4" d="M74.54,225.3l-.24.83c1.07,1.81,1.6,9.04,2.73,10.1.7.66,10.52.99,10.95.4.28-.39-1.2-8.73-1.68-9.21l-11.76-2.12Z"/>
    <path class="cls-4" d="M44.29,118.47c-1.42-.9-7.12-.44-9.06-.88l-.75.46c1.23,1.72,3.46,10.24,4.65,11.01.75.48,9.44.4,9.81-.02.47-.53-2.9-6.57-3.37-7.62-.4-.9-.36-2.36-1.28-2.94Z"/>
    <path class="cls-4" d="M62.73,137.99c.47,1.24,1.1,4.62,1.55,5.31.39.6,6.14,2.03,7.11,2.03.46,0,1.15.05,1.33-.52l-.88-7.34c-.31.34-.46.52-.46.52,0,0,.15-.17.46-.52l-9.62-2.9c-1.66.61.14,2.42.51,3.41Z"/>
    <path class="cls-4" d="M60.08,205.28l-3.01,7.83c1.78-.57,3.7-3.79,3.6-5.53-.04-.73-.51-1.55-.59-2.3Z"/>
    <path class="cls-4" d="M85.91,239.27c-2.06-1.4-5.35-1.85-7.14.21l7.83.75c.13-.62-.31-.7-.69-.96Z"/>
    <path class="cls-4" d="M32.06,120c.81,2.4,1.66,5.19,3.14,7.27.12.17.33,1.09.78.56.37-.43-1.57-8.09-3.92-7.83Z"/>
    <path class="cls-4" d="M71.23,228.03l2.12,7.68c.08.09.57-.34.6-.45.23-.9,0-3.65,0-4.82,0-.22-2.07-2.91-2.72-2.41Z"/>
    <path class="cls-4" d="M40.8,132.05c2.59.75,5.18-.47,7.83-.3-2.13-2.01-5.83-1.87-7.83.3Z"/>
    <path class="cls-4" d="M37.67,116.34c.66.27,1.35.63,2.08.65.8.03,5.62-1.19,3.31-1.82-1.64-.45-5.2.33-7.08,0,.22.45,1.26.99,1.7,1.17Z"/>
    <path class="cls-4" d="M67.31,178.16c-.9.39-5.3,5.49-4.82,6.03,2.73-1,4.71-2.98,4.82-6.03Z"/>
    <path class="cls-4" d="M60.09,136.57c-.24.28.61,6.52,1.8,6.93.5-1.85.34-4.67-.83-6.25-.28-.38-.37-.81-.97-.68Z"/>
    <path class="cls-4" d="M61.29,217.94l1.22,1.64,4.2,2.28c-.47-2.63-3.01-3.69-5.42-3.91Z"/>
    <path class="cls-4" d="M67.92,160.98c2.58-1.18,3.63-3.9,3.31-6.63-.8.53-3.55,6.34-3.31,6.63Z"/>
    <path class="cls-4" d="M63.4,195.93c.87-2.04.38-4.54-1.8-5.42-.4.63,1.12,5.95,1.8,5.42Z"/>
    <path class="cls-4" d="M88.71,226.37c.16,2.16-.15,5.29,2.41,6.03.23-.24-1.19-5.83-2.41-6.03Z"/>
    <path class="cls-4" d="M67.2,145.94c-.21,0-1.91.21-1.99.27-.61.46.22.52.43.63,1.45.73,3.69,1.39,5.3,1.48-.75-1.15-2.32-2.37-3.73-2.38Z"/>
    <path class="cls-4" d="M68.82,165.8c-.58.58,2.55,4.15,3.31,4.52.68-1.23-2.52-5.31-3.31-4.52Z"/>
    <path class="cls-4" d="M73.34,182.37c-.32-.35-.48-.53-.48-.53,0,0,.16.18.48.53l-.15-3.01c-.63.89-1.49,3.5.15,3.01Z"/>
    <path class="cls-4" d="M238.18,114.87c-.39,3.23-1.59,7.17-2.96,10.15-2.64,5.73-6.86,4.95-11.59,7.39-.31.16-.77.39-.22.7.24.13,3.44.44,4.06.46,3.11.13,9.69-.12,11.62-2.88,2.11-3.01.99-10.2.1-13.66-.18-.7-.26-1.84-1-2.16Z"/>
  </g>
</svg>