<?xml version="1.0" encoding="UTF-8"?>
<svg id="Capa_1" data-name="Capa 1" xmlns="http://www.w3.org/2000/svg" xmlns:xlink="http://www.w3.org/1999/xlink" viewBox="0 0 1024 1024">
  <defs>
    <style>
      .cls-1 {
        fill: url(#Degradado_sin_nombre_6);
      }

      .cls-2 {
        fill: url(#Degradado_sin_nombre_6-12);
      }

      .cls-3 {
        fill: url(#Degradado_sin_nombre_6-17);
      }

      .cls-4 {
        fill: url(#Degradado_sin_nombre_6-4);
      }

      .cls-5 {
        fill: url(#Degradado_sin_nombre_6-13);
      }

      .cls-6 {
        fill: url(#Degradado_sin_nombre_6-20);
      }

      .cls-7 {
        fill: url(#Degradado_sin_nombre_6-8);
      }

      .cls-8 {
        fill: url(#Degradado_sin_nombre_6-15);
      }

      .cls-9 {
        fill: url(#Degradado_sin_nombre_6-3);
      }

      .cls-10 {
        fill: url(#Degradado_sin_nombre_6-16);
      }

      .cls-11 {
        fill: url(#Degradado_sin_nombre_6-9);
      }

      .cls-12 {
        fill: url(#Degradado_sin_nombre_6-5);
      }

      .cls-13 {
        fill: url(#Degradado_sin_nombre_6-10);
      }

      .cls-14 {
        fill: url(#Degradado_sin_nombre_6-19);
      }

      .cls-15 {
        fill: url(#Degradado_sin_nombre_6-6);
      }

      .cls-16 {
        fill: url(#Degradado_sin_nombre_6-18);
      }

      .cls-17 {
        fill: url(#Degradado_sin_nombre_6-7);
      }

      .cls-18 {
        fill: url(#Degradado_sin_nombre_6-11);
      }

      .cls-19 {
        fill: url(#Degradado_sin_nombre_6-2);
      }

      .cls-20 {
        fill: url(#Degradado_sin_nombre_6-14);
      }
    </style>
    <linearGradient id="Degradado_sin_nombre_6" data-name="Degradado sin nombre 6" x1="868.04" y1="540.9" x2="159.92" y2="540.9" gradientUnits="userSpaceOnUse">
      <stop offset="0" stop-color="#184e77"/>
      <stop offset=".16" stop-color="#287c90"/>
      <stop offset=".41" stop-color="#34a0a4"/>
      <stop offset="1" stop-color="#76c893"/>
    </linearGradient>
    <linearGradient id="Degradado_sin_nombre_6-2" data-name="Degradado sin nombre 6" x1="874.94" y1="687.61" x2="822.22" y2="687.61" xlink:href="#Degradado_sin_nombre_6"/>
    <linearGradient id="Degradado_sin_nombre_6-3" data-name="Degradado sin nombre 6" x1="162.24" y1="511.56" x2="102.48" y2="511.56" xlink:href="#Degradado_sin_nombre_6"/>
    <linearGradient id="Degradado_sin_nombre_6-4" data-name="Degradado sin nombre 6" x1="912.05" y1="421.38" x2="853.37" y2="421.38" xlink:href="#Degradado_sin_nombre_6"/>
    <linearGradient id="Degradado_sin_nombre_6-5" data-name="Degradado sin nombre 6" x1="171.63" y1="601.31" x2="113.81" y2="601.31" xlink:href="#Degradado_sin_nombre_6"/>
    <linearGradient id="Degradado_sin_nombre_6-6" data-name="Degradado sin nombre 6" x1="171.63" y1="421.81" x2="113.81" y2="421.81" xlink:href="#Degradado_sin_nombre_6"/>
    <linearGradient id="Degradado_sin_nombre_6-7" data-name="Degradado sin nombre 6" x1="199.24" y1="335.52" x2="146.6" y2="335.52" xlink:href="#Degradado_sin_nombre_6"/>
    <linearGradient id="Degradado_sin_nombre_6-8" data-name="Degradado sin nombre 6" x1="202.69" y1="687.61" x2="150.83" y2="687.61" xlink:href="#Degradado_sin_nombre_6"/>
    <linearGradient id="Degradado_sin_nombre_6-9" data-name="Degradado sin nombre 6" x1="255.33" y1="763.55" x2="211.32" y2="763.55" xlink:href="#Degradado_sin_nombre_6"/>
    <linearGradient id="Degradado_sin_nombre_6-10" data-name="Degradado sin nombre 6" x1="922.48" y1="511.94" x2="862.86" y2="511.94" xlink:href="#Degradado_sin_nombre_6"/>
    <linearGradient id="Degradado_sin_nombre_6-11" data-name="Degradado sin nombre 6" x1="631.59" y1="131.5" x2="573.77" y2="131.5" xlink:href="#Degradado_sin_nombre_6"/>
    <linearGradient id="Degradado_sin_nombre_6-12" data-name="Degradado sin nombre 6" x1="372.7" y1="158.57" x2="319.19" y2="158.57" xlink:href="#Degradado_sin_nombre_6"/>
    <linearGradient id="Degradado_sin_nombre_6-13" data-name="Degradado sin nombre 6" x1="911.19" y1="601.74" x2="853.37" y2="601.74" xlink:href="#Degradado_sin_nombre_6"/>
    <linearGradient id="Degradado_sin_nombre_6-14" data-name="Degradado sin nombre 6" x1="724.9" y1="171.08" x2="673.01" y2="171.08" xlink:href="#Degradado_sin_nombre_6"/>
    <linearGradient id="Degradado_sin_nombre_6-15" data-name="Degradado sin nombre 6" x1="451.23" y1="131.42" x2="393.41" y2="131.42" xlink:href="#Degradado_sin_nombre_6"/>
    <linearGradient id="Degradado_sin_nombre_6-16" data-name="Degradado sin nombre 6" x1="241.52" y1="260.87" x2="195.79" y2="260.87" xlink:href="#Degradado_sin_nombre_6"/>
    <linearGradient id="Degradado_sin_nombre_6-17" data-name="Degradado sin nombre 6" x1="541.92" y1="121.03" x2="483.16" y2="121.03" xlink:href="#Degradado_sin_nombre_6"/>
    <linearGradient id="Degradado_sin_nombre_6-18" data-name="Degradado sin nombre 6" x1="299.34" y1="201.75" x2="253.61" y2="201.75" xlink:href="#Degradado_sin_nombre_6"/>
    <linearGradient id="Degradado_sin_nombre_6-19" data-name="Degradado sin nombre 6" x1="445.19" y1="399.81" x2="375.64" y2="399.81" xlink:href="#Degradado_sin_nombre_6"/>
    <linearGradient id="Degradado_sin_nombre_6-20" data-name="Degradado sin nombre 6" x1="257.05" y1="535.38" x2="233.92" y2="535.38" xlink:href="#Degradado_sin_nombre_6"/>
  </defs>
  <path class="cls-1" d="M786.06,758.36c-.21-1.5,1.96-.81,3.01-.85,9.49-.35,18.88.65,28.23-1.99.89-.25,2.61-.2,2.41-1.45-26.26.83-52.79-8.48-73.34-24.61l19.43,3.87c14.1.69,28.21-.52,41.65-4.92,3.35-1.1,8.32-2.72,10.54-5.41-24.9,3.3-54.06-8.6-70.34-27.61-2.53-2.95-10.34-13.23-9.77-16.61.42-2.5,3.24-6.29,3.31-9.28,21.79,21.21,52.19,23.8,79.39,11.65-14.74-1.71-29.21-6.12-41.43-14.67l27.22,1.33,8.16-1.75c-21.88-3.16-40.92-14.02-54.21-31.66-2.34-3.11-8.61-12.09-9.68-15.34-2.12-6.47-1.25-16.78-3.4-23.77,26.03,16.93,61.06,24.37,91.89,19.83,1.16-.17,2.81-.48,1.31-1.7-38.26-8.2-68.77-37.31-94.93-64.72,36.46,11.63,77.04,7.56,110.46-10.8l-20.43-8.04-13.22-7.91,30.74,6.78,7.22-.74c-29.64-11.61-51.08-36.25-69.88-60.86l1.27-1.27c12.37,5.89,29.45,11.16,43.13,12.1,1.14.08,5.39.64,5.64-.89-32.13-8.9-61.75-28.05-86.29-50.05,30.13,11.15,61.3,17.3,93.67,15.56,2.93-.16,15.87-1.33,17.67-2.18.39-.19,1.09-1.13.85-1.3-27.06-3.79-53.71-15.91-77.38-29.2-8.52-4.78-17.88-10.34-25.31-16.54,38.97,1.13,77.8-17.21,104.42-44.87-15.15,5.76-31.08,9.72-47.46,8.61l14.39-5.01,17.53-9.64c-40.11,11.4-82.89,8.64-123.56,1.45-3.35-.59-6.91-1.14-10.21-1.88-.95-.22-2.79,0-2.57-1.29,22.01.67,44.08-2.86,64.93-9.72l6.69-3.22c-9.06,1.62-18.07,1.46-27.21,1.68-15.78.38-32.3.69-48.19-.93-.79-.08-4-.65-4-1.19,45.73-7.29,88.45-32.21,117.35-68.2l8.65-12.48c-7.36,3.58-14.32,8.1-21.85,11.36-4.32,1.87-12.18,5.12-16.61,5.84-2.22.36-1.7-.1-.2-1.06,7.05-4.48,14.47-8.09,20.95-13.58.41-.34,2.74-2.01,1.74-2.57-42.4,21.63-88.73,11.4-133.79,13.78-6.84.36-14.25,1.87-21.1,2.62l27.33-13.65c20.6-11.81,40.94-24.58,58.1-41.14.13-.65-.83-.55-1.27-.41-5.57,1.74-13.68,6.9-20.08,9.26-32.69,12.06-67.83,13.98-101.55,21.85-10.98,23.28-22.39,46.78-39.32,66.39,5.73-12.19,12.07-24.13,17.4-36.53,16.18-37.68,29.45-78.48,36.95-118.81l-18.11,17.26,5.61-18.12c-34.82,32.58-72.11,62.3-110.48,90.6-2.25.17-.9-.34-.61-1.48,6.1-24.06,12.18-49.16,4.64-74.15-.35-1.15-.33-2.63-1.85-2.89-16.5,64.38-66.13,114.46-116.1,155.31-7.83,6.4-24.98,21.8-32.89,25.79-5.36,2.7-23.5-3.22-24.48-2.46l10.29,12.62c.23,1.26-2.87,3.56-3.82,3.77-4.94,1.06-13.19-.78-18.55,0-.88,2.49,7.8,6.6,6.9,7.76l-48.32,15.12c6.69,3.8,13.03,9,20.7,10.79-.16,1.34-3.18,1.86-4.3,2.16-3.39.91-6.99,1.13-10.36,2.16.71,2.33,12.05,5.33,10.34,7.74-1.03.06-1.87.56-2.6,1.26-33.28,31.65-67.71,64.23-99.25,97.54-14,14.79-32.64,34.45-43.83,51.1-1.68,2.5-6.08,7.41-3.07,9.66,6.3,4.71,24.67,8.27,32.64,8.77,19.26,1.22,46.66-6.4,62.86,2.73,6.84,3.85,7.68,5.13,11.07,11.37,1.32,2.44,4.89,3.75,6.8,6.15,9.27,11.63,3.63,32.63,2.6,46.17l11.64-12.93c5.46,9.57,10.78,19.57,19.41,26.73,3.01-27.4,24.93-48.29,44.87-65.17,10.76-9.11,23.55-18.97,35.12-27.01,14.27-9.92,45.19-30.92,55.66-5.92,5.33,12.73,4.66,38.82,3.29,52.79-6.21,63.31-50.18,125.95-117.36,131.62,7.88,5.89,19.41,9.99,29.34,10.35-7.6,5.58-17.34,9.96-26.29,12.97-14.4,4.85-28.92,6.74-44.04,7.81l-24.6-2.65c20.91,19.16,50.53,26.91,78.53,23.3-25.99,26.73-38.75,61.16-31.67,98.55,2.58,13.63,8.42,26.42,12.7,39.51l7.61-19.56c8.57-20.82,25.16-36.09,39.41-52.91,1.12-.05,2.25,9.92,2.78,11.88,9.47,35.28,38.9,56.86,72.73,66.63-6.7-16.08-11.38-32.59-6.89-50.04l12.91,18.57c3.4,3.53,6.97,6.86,10.85,9.87,1.11.86,7.39,5.92,8.16,5.21-15.9-19.4-20.62-44.77-18.02-69.35.29-2.76.47-6.95,2.06-9.16,1.78,27.2,16.03,52.19,39.25,66.44-3.01-7.27-5.63-13.85-5.15-22,2.28-38.56,49.35-66.69,75.5-89.32l1.28.42-45.73,63.87,1.28,1.28c14.52-12.35,33.17-16.65,50.21-24,17.68-7.63,34.38-17.65,47.32-32.07l10.77-13.81c-11.59,29.87-34.91,55.21-63.85,69.04-.16,1.47,2.97.94,3.91.89,12.62-.58,30.82-5.98,42.4-11.11,18.8-8.34,37.54-22.1,46.89-40.7,1.62-.18.72,1.75.44,2.6-6,18.43-19.95,37.54-36.69,47.46.12,1.95,3.81.32,4.78.03,23.06-6.92,48.79-23.82,62.02-44.12l10-19.78v17.69c0,9.62-6.77,20.79-9.48,29.36-.14.44-.24,1.41.41,1.27,22.46-22.74,28.3-56.58,16.83-86.28l10.07,8.48c32.34,24.11,79.26,21.7,113.33,2.3-15.14.73-30.64-1.92-44.86-7.34ZM521.11,578.42c-9.18,19.7-25.03,37.1-30.3,58.59-3.9,15.87-1.9,33.4,5.3,48,2.38-.27-.01-4.19-.01-4.74v-18.99c0-2.44,2.4-11.1,3.23-14.03l4.53-10.56c-.71,7.51-1.44,15.32-.89,22.9.84,11.43,4.46,10.34-.68,22.55-8.84,20.99-29.09,40.31-49.33,50.34-.15,1.53,2.92.91,3.86.84,9.64-.77,19.2-3.53,28.72-4.94.99-.15,3.07-.75,3.66.2-9.26,10.2-22.49,15.47-33.2,23.75-29.56,22.86-46.31,59.1-31.5,95.77,2.28-.16-.01-3.38-.01-3.88,0-4.68-.4-10.13,0-14.67,1.16-13.04,8.23-29.61,16.04-40.05,2.57-3.44,5.5-6.99,8.98-9.57-7.71,16.05-14.99,31.74-17.14,49.73-1.63,13.63,1.91,23.5,1.69,35.26-.12,6.47-4.6,15.91-5.23,23.32-.73,8.53-.05,17.98,1.7,26.31-11.72-10.45-21.72-24.79-26.75-39.69-1.56-.2-.78,1.87-.64,2.79,1.58,10.24,6.79,21.07,11.87,29.98-.61.61-6.08-4-6.92-4.73-23.16-20.25-32.75-48.54-26.75-78.97-5.83,6.37-10.12,14.24-15.55,21.12-6.56,8.31-14.28,15.68-21.12,23.75l5.59-20.29c1.22-4.12,4.83-9.09,6.05-12.94.14-.44.24-1.41-.41-1.27-12.11,11.94-20.93,28.35-26.36,44.41-1.88,5.55-2.77,11.5-4.54,17.04-.29.9-.22,2.61-1.46,2.4-10.14-31.25-4.76-63.87,14.81-90.03,12.2-16.3,28.47-27.35,43-41.13-21.23,10.3-44.02,15.21-67.64,11.97l-11.75-3.34c33.87-3.06,65.34-17.5,89.74-41l-17.81,3.76-10.66.56c57.57-23.77,90.62-81.81,93.63-142.82,22.65-15.42,42.4-36.19,53.94-61.27,1.46-.04,1.87-.48,1.65,1.22-1.16,9.1-2.16,18.56-4.51,27.44-2.15,8.13-6.09,15.42-9.23,23.12,5.95-5.99,12.36-12.82,15.54-20.7,1.77,0,.65,3.38.46,4.35-1.27,6.77-4.62,13.21-6.51,19.8,4.27-3.34,7.86-7.38,11.36-11.5.65-.76,1.69-2.8,1.57-.16ZM556.92,405.44c19.76,16.15,15.13,45.15,26.34,66.42l-25.01-25.46c-2.28-.84-4.41-5.02-6.91-4.31,9.75,13,17.78,27.65,21.56,43.58l-17.27-27.16-4.29-3.9c6.92,18.78,1.05,38.39-14.25,50.91-1.04-12.52-4.46-25.52-12.5-35.38,2.42,17.45-11.82,30.51-26.76,36.24,3.25-8.73,6.85-19.46,6.94-28.88,0-.86-.37-3.95-1.76-3.91-1.77,12.86-9.63,23.96-17.7,33.65l5.61-12.94c-41.33,14.01-81.15,37.91-116.4,63.52-25.4,18.45-52.16,40.06-67.84,67.65-1.99-3.89-1.98-8.41-3.02-12.51-.3-1.2,0-2.69-1.72-3.02l-1.74,18.12c-6.28-7.15-6.83-18.49-7.77-27.61l-5.16,11.21c1.12-12.58-2.26-23.07-11.23-31.91,3.15-.93,6.43-1.79,9.48-3.04,35.44-14.56,64.1-44.83,95.03-67.2,32.08-23.19,69.57-40.82,90.52-76.1l6.9,3.08c.04-14.71-17.68-9.79-24.15-2.6.79.79,8.93-2.4,7.76.43-.31.76-10.25,10.51-11.66,11.64-19.89,15.95-49.53,12.69-69.38,27.28-15.66,11.51-27.9,37.41-39.92,53.28-17.46,23.06-41.51,38.39-69.36,46.28-9.26-6.83-19.25-12.87-31.14-13.66-8.56-.57-18.86,2.07-27.51,2.47-13.06.6-25.96-.03-38.39-4.32l28.4-16.03c55.09-36.05,102.38-82.22,152.81-124.2l-25.88,1.29,16.12-6.74c5.59-3.9,12.52-6.64,16.67-12.23-13.77,5.03-26.92,3.65-40.55-.88.15-1.25,3.76-1.46,4.85-1.61,4.04-.56,8.51-.58,12.6-1.21l12.75-3.21c-11.61-.34-22.95-3.52-33.37-8.49-.51-.24-6.23-2.29-4.6-3.6l69.9-21.59-17.25-8.61c23.92,2.1,59.18,1.28,78.12-15.52,5.4-4.79,9.31-10.82,13.79-16.41-.37,8.16-5.08,16.29-10.79,22.01-.13.67.77.51,1.26.4,17.58-3.94,35.71-12.52,47.91-25.86-1.98,10.57-10.14,20.62-19.83,25.04-.14,1.59,2.83.85,3.77.75,8.6-1,20.96-2.95,29.2-5.32,7.35-2.11,14.25-5.76,20.52-10.11,1.66,1.76-11.43,13.64-13.87,14.17l-18.05,6.53c30.79,8.12,53.9,33.49,87.15,35.4.22,1.28-1.62,1.07-2.57,1.29-11.99,2.7-22.15,1.69-34.11,2.16-1.04.04-3.21-.65-3.01.85,16.06,3.43,31.94,10.22,44.01,21.58-8.64-2.87-16.87-6.83-25.7-9.24-9.12-2.49-18.37-3.96-27.8-4.55l20.26,12.09ZM362.32,514.58l-10.34,7.33,6.04-9.11c1.46-.77,3.3.72,4.29,1.79ZM360.62,508.49l6.47-9.87c.41,4.32,1.5,8.7.42,12.94-.77.69-6.64-1.97-6.89-3.08ZM386.51,495.61c-.16,1.2.48,1.5-1.28,1.27-2.11-1.56-9.97-6.53-9.97-9.05.34-2.09,11.02-12.04,12.11-10.78-1.32,5.93-.1,12.95-.86,18.57ZM383.04,499.91l-11.2,8.2v-16.4l11.2,8.2ZM403.76,486.52l-13.79,8.65c.67-5.35.25-11.7.81-16.87.14-1.3.08-2.14,1.34-2.96,1.13,2.38,12.91,9.34,11.65,11.19ZM395.14,473.16c1.7-1.4,13.96-5.44,14.66-4.74l-1.73,14.67c-5.06-2.27-8.57-6.65-12.93-9.93ZM421.88,474.44l-10.35,6.05c.87-2.12,1.01-11.63,3.04-12.08,1.46.64,8.41,4.46,7.31,6.03ZM418.44,466.25l8.62-2.15-.86,6.04c-3.2.46-5.64-1.84-7.76-3.89ZM430.52,466.68c.04-5.37,4.31-5.88,8.63-6.89-.43,1.34-7.96,7.59-8.63,6.89Z"/>
  <path class="cls-19" d="M862.85,660.85l-17.78,16.19-22.76-4.1c-.39,1.49.59,1.73,1.28,2.6,2.42,3.06,13.31,12.66,14.09,15.28l-4.15,23.54,18.08-16.03,23.34,3.08-15.36-17,3.27-23.55Z"/>
  <path class="cls-9" d="M131.94,541.76l7.96-22.23,22.24-7.11c.35-2.21-.2-1.34-1.21-1.8-6.25-2.84-14.6-4.05-21.02-7.03l-7.97-22.22-7.73,22.04-21.62,7.3c-.35,2.21.2,1.34,1.21,1.8,3.41,1.55,19.77,5.62,21.01,7.04l7.13,22.21Z"/>
  <polygon class="cls-4" points="877.3 431.54 889.6 450.29 891.76 427.85 912.05 414.05 887.89 411.89 874.95 392.47 872.75 415.74 853.37 428.71 877.3 431.54"/>
  <polygon class="cls-12" points="152.22 608.23 171.63 594.41 149.2 592.23 135.39 571.97 133.23 596.14 113.81 609.07 137.12 611.23 150.91 630.65 152.22 608.23"/>
  <polygon class="cls-15" points="135.39 451.15 148.85 431.4 171.63 428.71 152.22 414.9 150.04 392.47 137.11 411.89 113.81 414.06 133.21 427.86 135.39 451.15"/>
  <polygon class="cls-17" points="159.55 363.13 176.56 346.03 199.24 348.45 183.05 331.53 185.42 307.9 169.07 324.8 146.6 322.58 161.96 339.58 159.55 363.13"/>
  <path class="cls-7" d="M179.92,677.04l-17.78-16.19,4.18,23.54c-.53,2.02-11.86,11.47-14.12,14.43-.66.87-1.67,1.09-1.28,2.59l22.55-3,18,15.95-4.13-22.67,15.36-17.88-22.77,3.24Z"/>
  <polygon class="cls-11" points="233.31 752.24 212.19 741.98 222.32 763.85 211.32 784.25 233.33 774.83 253.6 785.12 245.01 764.07 255.33 742.85 233.31 752.24"/>
  <path class="cls-13" d="M920.51,510.48c-6.49-2.5-13.53-3.79-19.72-7.07l-6.87-21.19c-2.21-.35-1.34.2-1.8,1.21-2.73,6-3.61,13.94-6.84,19.91-6.06,3.69-14.04,4.46-20.29,7.32-.86.39-2.02.53-2.12,1.75l22.43,7.35c3.18,6.01,4.1,13.84,6.88,19.87.4.86.5,2.03,1.74,2.13l7.37-22.41,21.13-7.37c.38-1.9-.82-1.09-1.9-1.51Z"/>
  <path class="cls-18" d="M595.35,160.33c2.06.48,1.4-.36,1.92-1.12,3.99-5.8,6.85-12.55,11.06-18.25l23.26-3.07-19.42-12.94c-1.57-3.36-1.26-21.47-3.46-22.43l-11.69,18.51-23.25,3.07,19.37,12.98,2.2,23.25Z"/>
  <path class="cls-2" d="M341.89,169.15l16.99,16.22-2.4-23.56,16.22-16.99-23.56,2.4c-2.25-.67-11.36-11.65-14.41-14.06-.87-.69-1.11-1.67-2.6-1.28l3.11,22.45-16.05,17.23,22.69-2.4Z"/>
  <polygon class="cls-5" points="889.6 572.83 876.67 592.25 853.37 594.41 872.76 608.24 874.95 630.65 887.89 611.23 911.19 609.07 891.78 595.26 889.6 572.83"/>
  <path class="cls-20" d="M684.24,197.44l18.75-16.25,21.79,4.17c1.65-1.94-13.71-14.49-14.48-17.87-1.29-5.64,2.54-16.63,3.27-22.68-1.49-.39-1.73.59-2.6,1.28-2.89,2.28-11.93,12.46-14.41,13.2-5.98,1.79-17.04-3.41-23.56-3.26l15.4,17.88-4.17,23.53Z"/>
  <polygon class="cls-8" points="429.64 160.33 432.32 136.69 451.23 124.1 427.98 121.01 415.85 102.52 413 125.56 393.41 137.89 416.66 140.96 429.64 160.33"/>
  <polygon class="cls-10" points="200.11 284.6 219.62 271.89 241.52 279.42 229.61 258.95 236.34 237.14 216.89 249.2 195.79 242.32 207.65 261.86 200.11 284.6"/>
  <path class="cls-3" d="M511.69,148.63c.35.9.32,2.08,1.66,2.21l7.15-22.21c6.37-2.53,13.05-4.45,19.44-6.91,1.08-.42,2.28.39,1.9-1.51l-21.63-7.73-6.87-21.19c-2.27-.26-1.36.04-1.73,1.26-2.02,6.73-4.11,13.42-6.23,20.1-.92,1.08-17.09,5.69-20.11,7.07-.86.39-2.02.53-2.12,1.75l21.57,7.35c3.27,6.12,4.5,13.49,6.96,19.79Z"/>
  <path class="cls-16" d="M275.29,213.4l19.73,11.65-7.34-21.68,11.66-19.73c-1.29-1.03-17.64,7.44-21.93,6.88-4.25-.55-14.86-10.04-19.48-12.07l7.76,22.8-12.08,19.48,21.68-7.34Z"/>
  <path class="cls-14" d="M378.03,401.69c-.96,1.88-2.76,5.51-2.32,7.18l8.2-6.9-5.16,35.38c5.45-5.02,9.2-11.76,15.11-16.38,7.8-6.08,17.78-8.49,25.01-16.41,8.3-9.08,9.58-20.5,15.6-30.14,2.94-4.71,7.4-7.81,10.72-12.14-25.73,8.87-53.49,12.8-67.16,39.41Z"/>
  <path class="cls-6" d="M234.59,544.83c.5,1.42,4.52,7.7,6.08,6.42-6.31-15.89,16.54-17.21,16.39-31.92l-6.48,6.88c-6.34,5.26-19.8,7.86-15.98,18.62Z"/>
</svg>